<svg id="svg" version="1.1" xmlns="http://www.w3.org/2000/svg" xmlns:xlink="http://www.w3.org/1999/xlink" width="400" height="400" viewBox="0, 0, 400,400"><g id="svgg"><path id="path0" d="M64.000 169.600 C 64.000 169.820,63.460 170.000,62.800 170.000 C 62.140 170.000,61.600 170.180,61.600 170.400 C 61.600 170.620,60.959 170.800,60.176 170.800 C 59.329 170.800,58.853 170.962,59.000 171.200 C 59.140 171.427,58.804 171.600,58.224 171.600 C 57.661 171.600,57.200 171.780,57.200 172.000 C 57.200 172.220,56.930 172.400,56.600 172.400 C 56.270 172.400,56.000 172.580,56.000 172.800 C 56.000 173.020,55.640 173.200,55.200 173.200 C 54.760 173.200,54.400 173.380,54.400 173.600 C 54.400 173.820,54.130 174.000,53.800 174.000 C 53.470 174.000,53.200 174.180,53.200 174.400 C 53.200 174.620,52.922 174.800,52.582 174.800 C 51.918 174.800,46.800 179.808,46.800 180.457 C 46.800 180.672,46.620 180.736,46.400 180.600 C 46.180 180.464,46.000 180.684,46.000 181.088 C 46.000 181.493,45.640 182.083,45.200 182.400 C 44.760 182.717,44.400 183.297,44.400 183.688 C 44.400 184.080,44.220 184.400,44.000 184.400 C 43.780 184.400,43.600 184.670,43.600 185.000 C 43.600 185.330,43.420 185.600,43.200 185.600 C 42.980 185.600,42.800 185.960,42.800 186.400 C 42.800 186.840,42.620 187.200,42.400 187.200 C 42.180 187.200,42.000 187.650,42.000 188.200 C 42.000 188.750,41.820 189.200,41.600 189.200 C 41.380 189.200,41.200 189.830,41.200 190.600 C 41.200 191.370,41.020 192.000,40.800 192.000 C 40.580 192.000,40.400 192.990,40.400 194.200 C 40.400 195.410,40.220 196.400,40.000 196.400 C 39.761 196.400,39.600 197.933,39.600 200.200 C 39.600 202.467,39.761 204.000,40.000 204.000 C 40.220 204.000,40.400 205.001,40.400 206.224 C 40.400 207.604,40.552 208.353,40.800 208.200 C 41.038 208.053,41.200 208.529,41.200 209.376 C 41.200 210.159,41.380 210.800,41.600 210.800 C 41.820 210.800,42.000 211.250,42.000 211.800 C 42.000 212.350,42.180 212.800,42.400 212.800 C 42.620 212.800,42.800 213.160,42.800 213.600 C 42.800 214.040,42.980 214.400,43.200 214.400 C 43.420 214.400,43.600 214.670,43.600 215.000 C 43.600 215.330,43.780 215.600,44.000 215.600 C 44.220 215.600,44.400 215.960,44.400 216.400 C 44.400 216.840,44.580 217.200,44.800 217.200 C 45.020 217.200,45.200 217.571,45.200 218.024 C 45.200 218.477,45.380 218.736,45.600 218.600 C 45.820 218.464,46.000 218.561,46.000 218.816 C 46.000 219.071,46.540 219.783,47.200 220.400 C 47.860 221.017,48.400 221.809,48.400 222.160 C 48.400 222.512,48.684 222.800,49.031 222.800 C 49.379 222.800,50.354 223.520,51.200 224.400 C 52.046 225.280,53.021 226.000,53.369 226.000 C 53.716 226.000,54.000 226.180,54.000 226.400 C 54.000 226.620,54.360 226.800,54.800 226.800 C 55.240 226.800,55.600 226.980,55.600 227.200 C 55.600 227.420,55.960 227.600,56.400 227.600 C 56.840 227.600,57.200 227.780,57.200 228.000 C 57.200 228.220,57.470 228.400,57.800 228.400 C 58.130 228.400,58.400 228.580,58.400 228.800 C 58.400 229.020,58.940 229.200,59.600 229.200 C 60.260 229.200,60.800 229.380,60.800 229.600 C 60.800 229.820,61.430 230.000,62.200 230.000 C 62.970 230.000,63.600 230.180,63.600 230.400 C 63.600 230.652,66.267 230.800,70.800 230.800 C 75.333 230.800,78.000 230.652,78.000 230.400 C 78.000 230.180,78.630 230.000,79.400 230.000 C 80.170 230.000,80.800 229.820,80.800 229.600 C 80.800 229.380,81.340 229.200,82.000 229.200 C 82.660 229.200,83.200 229.020,83.200 228.800 C 83.200 228.580,83.470 228.400,83.800 228.400 C 84.130 228.400,84.400 228.220,84.400 228.000 C 84.400 227.780,84.760 227.600,85.200 227.600 C 85.640 227.600,86.001 227.465,86.003 227.300 C 86.007 226.935,87.949 226.000,88.703 226.000 C 89.002 226.000,89.136 225.820,89.000 225.600 C 88.864 225.380,88.961 225.200,89.216 225.200 C 89.471 225.200,90.183 224.660,90.800 224.000 C 91.417 223.340,92.209 222.800,92.560 222.800 C 92.912 222.800,93.200 222.512,93.200 222.160 C 93.200 221.809,93.740 221.017,94.400 220.400 C 95.060 219.783,95.600 219.071,95.600 218.816 C 95.600 218.561,95.808 218.481,96.062 218.638 C 96.336 218.807,96.415 218.749,96.258 218.494 C 96.112 218.258,96.264 217.793,96.596 217.461 C 96.928 217.129,97.200 216.574,97.200 216.229 C 97.200 215.883,97.380 215.600,97.600 215.600 C 97.820 215.600,98.000 215.330,98.000 215.000 C 98.000 214.670,98.180 214.400,98.400 214.400 C 98.620 214.400,98.800 214.040,98.800 213.600 C 98.800 213.160,98.980 212.800,99.200 212.800 C 99.420 212.800,99.600 212.350,99.600 211.800 C 99.600 211.250,99.780 210.800,100.000 210.800 C 100.220 210.800,100.400 210.260,100.400 209.600 C 100.400 208.940,100.580 208.400,100.800 208.400 C 101.020 208.400,101.200 207.410,101.200 206.200 C 101.200 204.990,101.380 204.000,101.600 204.000 C 101.839 204.000,102.000 202.467,102.000 200.200 C 102.000 197.933,101.839 196.400,101.600 196.400 C 101.380 196.400,101.200 195.410,101.200 194.200 C 101.200 192.990,101.020 192.000,100.800 192.000 C 100.580 192.000,100.400 191.370,100.400 190.600 C 100.400 189.830,100.220 189.200,100.000 189.200 C 99.780 189.200,99.600 188.750,99.600 188.200 C 99.600 187.650,99.454 187.200,99.275 187.200 C 99.096 187.200,98.702 186.570,98.400 185.800 C 98.098 185.030,97.704 184.400,97.525 184.400 C 97.346 184.400,97.200 184.080,97.200 183.688 C 97.200 183.297,96.840 182.717,96.400 182.400 C 95.960 182.083,95.600 181.590,95.600 181.305 C 95.600 180.577,89.744 174.800,89.006 174.800 C 88.673 174.800,88.400 174.620,88.400 174.400 C 88.400 174.180,88.130 174.000,87.800 174.000 C 87.470 174.000,87.200 173.820,87.200 173.600 C 87.200 173.380,86.840 173.200,86.400 173.200 C 85.960 173.200,85.600 173.020,85.600 172.800 C 85.600 172.580,85.330 172.400,85.000 172.400 C 84.670 172.400,84.400 172.220,84.400 172.000 C 84.400 171.780,83.939 171.600,83.376 171.600 C 82.796 171.600,82.460 171.427,82.600 171.200 C 82.747 170.962,82.271 170.800,81.424 170.800 C 80.641 170.800,80.000 170.620,80.000 170.400 C 80.000 170.180,79.460 170.000,78.800 170.000 C 78.140 170.000,77.600 169.820,77.600 169.600 C 77.600 169.349,75.067 169.200,70.800 169.200 C 66.533 169.200,64.000 169.349,64.000 169.600 M73.916 181.560 C 75.790 182.519,80.574 187.820,80.958 189.364 C 81.117 190.004,81.762 191.153,82.391 191.916 C 83.020 192.679,83.475 193.505,83.402 193.752 C 82.821 195.710,82.889 196.781,83.650 197.658 C 84.277 198.380,84.407 198.920,84.216 199.998 C 84.079 200.769,83.982 201.805,84.000 202.300 C 84.019 202.795,84.033 204.010,84.033 205.000 C 84.033 205.990,84.019 207.205,84.000 207.700 C 83.982 208.195,84.082 209.255,84.222 210.054 C 84.371 210.905,84.282 211.874,84.007 212.388 C 83.626 213.098,83.657 213.400,84.168 213.965 C 85.049 214.938,84.956 216.893,83.971 218.146 L 83.142 219.200 69.846 219.200 C 57.043 219.200,56.519 219.170,55.680 218.389 C 54.492 217.281,54.221 215.908,54.922 214.543 C 55.317 213.773,55.442 212.716,55.304 211.302 C 55.168 209.910,55.271 208.996,55.612 208.585 C 56.001 208.116,56.014 207.854,55.663 207.503 C 55.054 206.894,55.066 203.494,55.680 202.880 C 56.053 202.507,56.053 202.293,55.680 201.920 C 54.986 201.226,55.075 198.202,55.807 197.595 C 56.265 197.214,56.352 196.632,56.163 195.209 C 55.937 193.498,56.027 193.197,57.157 191.910 C 57.841 191.132,58.400 190.191,58.400 189.821 C 58.400 188.838,59.139 187.572,60.554 186.132 C 61.239 185.435,62.393 184.217,63.117 183.426 C 65.544 180.777,70.659 179.892,73.916 181.560 M53.463 186.180 C 53.320 186.553,53.433 186.685,53.780 186.552 C 54.076 186.439,54.438 186.538,54.583 186.773 C 54.728 187.008,55.306 187.200,55.866 187.200 C 56.592 187.200,56.822 187.367,56.663 187.780 C 56.515 188.167,56.633 188.285,57.020 188.137 C 57.414 187.986,57.600 188.186,57.600 188.757 C 57.600 189.427,57.354 189.600,56.400 189.600 C 55.740 189.600,55.200 189.780,55.200 190.000 C 55.200 190.220,54.660 190.400,54.000 190.400 C 52.994 190.400,52.800 190.242,52.800 189.424 C 52.800 188.887,52.620 188.336,52.400 188.200 C 51.951 187.922,51.857 186.277,52.267 185.867 C 52.778 185.355,53.688 185.593,53.463 186.180 M89.600 191.176 C 89.600 191.603,89.420 192.064,89.200 192.200 C 88.980 192.336,88.800 192.865,88.800 193.375 C 88.800 194.711,87.752 195.487,86.773 194.876 C 86.354 194.614,85.558 194.400,85.005 194.400 C 84.155 194.400,84.000 194.215,84.000 193.200 C 84.000 192.225,84.169 191.998,84.900 191.991 C 85.395 191.986,86.250 191.630,86.800 191.200 C 88.131 190.159,89.600 190.147,89.600 191.176 " stroke="none" fill="#fbbd5e" fill-rule="evenodd"></path><path id="path1" d="M157.654 181.047 C 157.305 181.443,156.763 181.577,156.146 181.422 C 155.486 181.256,155.109 181.372,154.948 181.790 C 154.820 182.126,154.388 182.400,153.989 182.400 C 152.192 182.400,147.200 188.320,147.200 190.450 C 147.200 190.876,146.975 191.311,146.700 191.417 C 145.948 191.705,145.989 203.110,146.742 203.399 C 147.100 203.537,147.200 203.947,147.035 204.604 C 146.851 205.338,146.945 205.600,147.392 205.600 C 147.733 205.600,148.000 205.951,148.000 206.400 C 148.000 206.840,148.180 207.200,148.400 207.200 C 148.620 207.200,148.800 207.429,148.800 207.709 C 148.800 208.399,151.142 211.198,151.729 211.209 C 151.988 211.214,152.650 211.570,153.200 212.000 C 153.750 212.430,154.611 212.786,155.113 212.791 C 155.614 212.796,156.112 213.025,156.217 213.300 C 156.455 213.919,165.573 214.027,165.467 213.409 C 165.430 213.195,165.848 212.952,166.395 212.869 C 166.942 212.787,167.842 212.407,168.395 212.025 C 168.948 211.643,169.708 211.219,170.084 211.084 C 170.838 210.812,173.079 207.915,173.630 206.500 C 173.823 206.005,174.159 205.600,174.378 205.600 C 174.596 205.600,174.661 205.304,174.522 204.942 C 174.382 204.576,174.523 204.088,174.840 203.842 C 175.209 203.555,175.408 202.639,175.405 201.233 C 175.402 199.852,175.581 199.006,175.900 198.900 C 176.175 198.808,176.400 198.133,176.400 197.400 C 176.400 196.667,176.175 195.992,175.900 195.900 C 175.581 195.794,175.402 194.948,175.405 193.567 C 175.407 192.166,175.209 191.244,174.842 190.960 C 174.510 190.701,174.368 190.164,174.500 189.659 C 174.624 189.186,174.573 188.893,174.386 189.009 C 174.199 189.124,173.745 188.583,173.376 187.807 C 172.651 186.279,168.663 182.400,167.817 182.400 C 167.531 182.400,167.076 182.132,166.804 181.804 C 166.532 181.477,166.140 181.314,165.932 181.442 C 165.361 181.795,163.533 181.233,163.807 180.788 C 164.238 180.091,158.278 180.342,157.654 181.047 M69.000 181.200 C 68.855 181.434,69.270 181.600,70.000 181.600 C 70.730 181.600,71.145 181.434,71.000 181.200 C 70.864 180.980,70.414 180.800,70.000 180.800 C 69.586 180.800,69.136 180.980,69.000 181.200 M114.000 197.780 L 114.000 214.000 116.391 214.000 L 118.782 214.000 118.891 206.700 L 119.000 199.400 126.535 199.400 L 134.069 199.400 134.019 206.700 L 133.968 214.000 136.784 214.000 L 139.600 214.000 139.600 198.043 C 139.600 180.028,139.928 181.600,136.167 181.600 L 134.000 181.600 134.000 188.300 L 134.001 195.000 126.410 194.883 L 118.820 194.767 118.710 188.283 L 118.600 181.800 116.300 181.680 L 114.000 181.560 114.000 197.780 M183.200 197.800 L 183.200 214.000 185.200 214.000 L 187.200 214.000 187.200 201.167 C 187.200 186.687,187.202 186.682,189.798 191.831 C 190.677 193.574,191.532 195.060,191.698 195.133 C 191.864 195.207,192.000 195.597,192.000 196.000 C 192.000 196.403,192.135 196.793,192.300 196.867 C 192.465 196.940,193.162 198.080,193.848 199.400 C 194.535 200.720,195.705 202.970,196.448 204.400 C 197.192 205.830,197.935 207.060,198.100 207.133 C 198.265 207.207,198.400 207.612,198.400 208.033 C 198.400 208.455,198.601 208.800,198.847 208.800 C 199.096 208.800,199.201 209.153,199.084 209.600 C 198.961 210.072,199.072 210.400,199.355 210.400 C 199.620 210.400,200.170 211.210,200.578 212.200 L 201.321 214.000 203.860 214.000 L 206.400 214.000 206.400 197.800 L 206.400 181.600 204.400 181.600 L 202.400 181.600 202.400 194.000 C 202.400 200.820,202.247 206.400,202.060 206.400 C 201.873 206.400,201.109 205.185,200.362 203.700 C 199.615 202.215,198.868 200.940,198.702 200.867 C 198.536 200.793,198.400 200.403,198.400 200.000 C 198.400 199.597,198.265 199.207,198.100 199.133 C 197.806 199.003,197.138 197.817,194.643 193.000 C 193.959 191.680,193.265 190.540,193.100 190.467 C 192.935 190.393,192.800 189.988,192.800 189.567 C 192.800 189.145,192.620 188.800,192.400 188.800 C 192.180 188.800,192.000 188.455,192.000 188.033 C 192.000 187.612,191.865 187.207,191.700 187.133 C 191.430 187.013,190.222 184.911,189.040 182.503 C 188.649 181.707,188.298 181.606,185.900 181.603 L 183.200 181.600 183.200 197.800 M216.000 197.800 L 216.000 214.000 226.400 214.000 L 236.800 214.000 236.800 211.808 L 236.800 209.616 228.500 209.508 L 220.200 209.400 220.200 204.400 L 220.200 199.400 227.589 199.291 C 235.845 199.168,235.808 199.181,235.422 196.608 L 235.144 194.756 227.672 194.828 L 220.200 194.900 220.200 190.150 L 220.200 185.400 228.400 185.200 L 236.600 185.000 236.723 183.300 L 236.846 181.600 226.423 181.600 L 216.000 181.600 216.000 197.800 M241.200 181.838 C 241.200 182.104,242.488 184.488,242.800 184.800 C 242.910 184.910,243.225 185.405,243.500 185.900 C 244.544 187.780,245.010 188.573,245.308 188.980 C 246.309 190.346,248.800 194.483,248.800 194.780 C 248.800 194.974,248.935 195.193,249.100 195.267 C 249.476 195.434,250.775 197.564,251.071 198.500 C 251.193 198.885,251.452 199.200,251.647 199.200 C 251.841 199.200,252.000 199.470,252.000 199.800 C 252.000 200.130,252.180 200.400,252.400 200.400 C 252.651 200.400,252.800 202.933,252.800 207.200 L 252.800 214.000 254.800 214.000 L 256.800 214.000 256.800 207.812 C 256.800 201.691,257.234 199.593,258.746 198.400 C 258.980 198.216,259.419 197.491,260.562 195.400 C 260.803 194.960,261.090 194.510,261.200 194.400 C 261.596 194.004,262.854 191.785,263.071 191.100 C 263.193 190.715,263.452 190.400,263.647 190.400 C 263.841 190.400,264.000 190.207,264.000 189.972 C 264.000 189.737,264.540 188.759,265.200 187.800 C 265.860 186.841,266.400 185.897,266.400 185.703 C 266.400 185.509,266.715 184.993,267.100 184.555 C 267.833 183.722,268.800 182.158,268.800 181.805 C 268.800 181.080,263.511 181.654,263.316 182.400 C 263.201 182.840,262.969 183.200,262.800 183.200 C 262.631 183.200,262.393 183.515,262.271 183.900 C 262.054 184.585,260.796 186.804,260.400 187.200 C 260.290 187.310,259.975 187.805,259.700 188.300 C 259.425 188.795,258.975 189.605,258.700 190.100 C 258.425 190.595,258.110 191.090,258.000 191.200 C 257.890 191.310,257.315 192.300,256.722 193.400 C 255.570 195.539,254.591 195.947,253.844 194.600 C 253.600 194.160,253.297 193.710,253.170 193.600 C 253.044 193.490,252.504 192.590,251.970 191.600 C 251.437 190.610,250.910 189.710,250.800 189.600 C 250.613 189.413,250.078 188.502,249.038 186.600 C 248.797 186.160,248.510 185.710,248.400 185.600 C 248.004 185.204,246.746 182.985,246.529 182.300 C 246.313 181.620,241.200 181.177,241.200 181.838 M63.958 183.333 C 62.660 184.596,60.800 186.827,60.800 187.121 C 60.800 187.253,61.016 187.144,61.280 186.880 C 61.621 186.539,64.053 186.400,69.680 186.400 C 74.036 186.400,77.600 186.252,77.600 186.072 C 77.600 185.547,74.780 182.400,74.310 182.400 C 74.074 182.400,74.448 182.942,75.141 183.603 C 77.424 185.786,76.942 186.000,69.741 186.000 C 62.953 186.000,62.167 185.692,64.036 183.763 C 65.515 182.237,65.451 181.880,63.958 183.333 M163.860 185.412 C 163.999 185.773,164.377 185.934,164.783 185.805 C 166.311 185.320,170.714 190.381,170.193 192.023 C 170.071 192.407,170.222 192.800,170.538 192.921 C 171.334 193.226,171.349 201.379,170.554 202.038 C 170.254 202.287,170.118 202.667,170.252 202.883 C 171.315 204.604,165.567 209.739,163.036 209.328 C 162.097 209.176,161.600 209.252,161.600 209.548 C 161.600 209.796,161.240 210.000,160.800 210.000 C 160.360 210.000,160.000 209.808,160.000 209.573 C 160.000 209.317,159.318 209.197,158.300 209.273 C 157.128 209.361,156.630 209.249,156.695 208.914 C 156.750 208.636,156.539 208.525,156.202 208.655 C 154.982 209.123,150.944 203.835,151.407 202.377 C 151.534 201.977,151.370 201.597,151.012 201.460 C 150.137 201.124,150.111 193.686,150.983 193.351 C 151.390 193.195,151.495 192.777,151.333 191.964 C 151.186 191.230,151.266 190.800,151.550 190.800 C 151.797 190.800,152.000 190.521,152.000 190.181 C 152.000 189.120,155.904 185.516,156.759 185.787 C 157.227 185.936,157.593 185.796,157.740 185.412 C 157.920 184.943,158.633 184.800,160.800 184.800 C 162.967 184.800,163.680 184.943,163.860 185.412 M53.446 188.212 C 52.793 188.864,52.983 190.004,53.743 189.994 C 54.614 189.982,55.163 189.371,55.097 188.488 C 55.019 187.456,54.318 187.339,53.446 188.212 M80.057 189.856 C 80.335 191.539,79.985 191.600,70.009 191.600 C 59.989 191.600,59.217 191.519,59.173 190.457 C 59.155 190.021,58.990 190.136,58.682 190.800 C 58.427 191.350,57.899 192.035,57.509 192.323 C 57.119 192.610,56.800 193.015,56.800 193.223 C 56.800 193.430,57.160 193.240,57.600 192.800 C 58.362 192.038,58.933 192.000,69.731 192.000 L 81.061 192.000 80.885 190.795 C 80.787 190.132,80.534 189.483,80.321 189.351 C 80.109 189.220,79.990 189.447,80.057 189.856 M86.473 193.097 C 86.621 194.375,88.000 194.929,88.000 193.709 C 88.000 192.928,87.291 192.000,86.693 192.000 C 86.503 192.000,86.404 192.493,86.473 193.097 M56.936 195.733 C 57.081 196.136,57.200 196.676,57.200 196.933 C 57.200 197.948,82.176 197.388,82.334 196.369 C 82.462 195.546,82.427 195.536,81.545 196.154 C 79.871 197.326,58.986 197.104,57.662 195.900 C 56.825 195.140,56.713 195.114,56.936 195.733 M83.129 199.579 C 83.247 200.815,83.098 201.228,82.337 201.770 C 81.460 202.394,81.446 202.464,82.122 202.851 C 83.841 203.836,83.800 206.460,82.050 207.377 L 81.001 207.927 82.070 208.413 C 83.291 208.970,83.816 210.449,83.201 211.599 C 82.219 213.433,79.600 213.590,79.600 211.816 C 79.600 210.919,78.731 210.203,78.239 210.694 C 78.108 210.826,78.000 211.329,78.000 211.812 C 78.000 213.337,74.706 213.521,72.671 212.111 C 70.605 210.679,68.519 210.692,66.789 212.148 C 65.283 213.415,59.177 213.705,57.077 212.609 C 56.032 212.064,55.970 212.074,56.186 212.755 C 56.318 213.172,56.156 213.705,55.809 213.993 C 55.064 214.611,55.034 216.747,55.757 217.700 C 56.535 218.726,56.954 218.556,56.223 217.511 C 54.281 214.739,55.745 213.600,61.249 213.600 L 65.640 213.600 65.520 215.900 L 65.400 218.200 61.485 218.315 C 59.105 218.384,57.664 218.580,57.809 218.815 C 58.137 219.346,81.071 219.332,81.400 218.800 C 81.558 218.545,80.340 218.400,78.031 218.400 C 73.996 218.400,73.778 218.221,74.071 215.155 L 74.200 213.800 78.286 213.686 C 81.949 213.584,82.457 213.657,83.186 214.386 C 83.634 214.834,84.000 215.031,84.000 214.824 C 84.000 214.617,83.820 214.336,83.600 214.200 C 83.380 214.064,83.200 213.524,83.200 213.000 C 83.200 212.476,83.380 211.936,83.600 211.800 C 84.212 211.422,84.076 209.688,83.347 208.576 C 82.744 207.654,82.744 207.525,83.347 206.858 C 84.195 205.922,84.179 204.461,83.310 203.501 C 82.657 202.779,82.657 202.675,83.310 201.537 C 84.128 200.112,84.191 199.056,83.492 198.476 C 83.093 198.145,83.015 198.382,83.129 199.579 M66.387 201.034 C 65.918 202.267,66.171 202.800,67.224 202.800 C 67.844 202.800,68.000 202.519,68.000 201.400 C 68.000 199.699,66.983 199.468,66.387 201.034 M56.200 201.657 C 56.366 202.319,56.224 203.180,55.821 203.959 C 55.240 205.084,55.237 205.312,55.790 206.302 L 56.403 207.400 56.158 206.300 C 55.813 204.747,56.241 203.393,57.216 202.958 C 58.038 202.591,58.035 202.573,56.992 201.593 L 55.935 200.600 56.200 201.657 M56.022 208.848 C 55.415 210.011,55.295 210.633,55.582 211.124 C 55.900 211.671,55.978 211.558,55.988 210.533 C 55.996 209.634,56.306 209.044,57.056 208.498 C 57.914 207.872,57.994 207.683,57.484 207.488 C 57.039 207.317,56.614 207.712,56.022 208.848 " stroke="none" fill="#090908" fill-rule="evenodd"></path><path id="path2" d="M66.200 168.800 C 65.701 169.014,67.435 169.144,70.800 169.144 C 74.165 169.144,75.899 169.014,75.400 168.800 C 74.960 168.611,72.890 168.456,70.800 168.456 C 68.710 168.456,66.640 168.611,66.200 168.800 M62.800 169.600 C 62.800 169.820,63.070 170.000,63.400 170.000 C 63.730 170.000,64.000 169.820,64.000 169.600 C 64.000 169.380,63.730 169.200,63.400 169.200 C 63.070 169.200,62.800 169.380,62.800 169.600 M77.600 169.600 C 77.600 169.820,77.870 170.000,78.200 170.000 C 78.530 170.000,78.800 169.820,78.800 169.600 C 78.800 169.380,78.530 169.200,78.200 169.200 C 77.870 169.200,77.600 169.380,77.600 169.600 M59.600 170.400 C 59.600 170.620,60.050 170.800,60.600 170.800 C 61.150 170.800,61.600 170.620,61.600 170.400 C 61.600 170.180,61.150 170.000,60.600 170.000 C 60.050 170.000,59.600 170.180,59.600 170.400 M80.000 170.400 C 80.000 170.620,80.450 170.800,81.000 170.800 C 81.550 170.800,82.000 170.620,82.000 170.400 C 82.000 170.180,81.550 170.000,81.000 170.000 C 80.450 170.000,80.000 170.180,80.000 170.400 M55.700 172.144 C 54.671 172.654,54.515 173.200,55.400 173.200 C 55.730 173.200,56.000 173.020,56.000 172.800 C 56.000 172.580,56.270 172.400,56.600 172.400 C 56.930 172.400,57.200 172.220,57.200 172.000 C 57.200 171.522,56.897 171.551,55.700 172.144 M85.600 172.800 C 85.600 173.020,85.870 173.200,86.200 173.200 C 86.530 173.200,86.800 173.020,86.800 172.800 C 86.800 172.580,86.530 172.400,86.200 172.400 C 85.870 172.400,85.600 172.580,85.600 172.800 M52.860 173.842 C 52.562 174.178,52.452 174.576,52.614 174.726 C 52.777 174.877,52.990 174.775,53.088 174.500 C 53.186 174.225,53.522 174.000,53.833 174.000 C 54.145 174.000,54.400 173.820,54.400 173.600 C 54.400 173.001,53.474 173.146,52.860 173.842 M87.200 173.600 C 87.200 173.820,87.455 174.000,87.767 174.000 C 88.078 174.000,88.414 174.225,88.512 174.500 C 88.610 174.775,88.827 174.874,88.993 174.719 C 89.341 174.395,88.268 173.200,87.629 173.200 C 87.393 173.200,87.200 173.380,87.200 173.600 M48.638 177.406 C 47.100 178.944,46.105 180.246,46.267 180.509 C 46.468 180.834,46.593 180.820,46.713 180.460 C 46.805 180.184,47.960 178.876,49.280 177.552 C 50.599 176.229,51.591 175.058,51.484 174.951 C 51.377 174.843,50.096 175.948,48.638 177.406 M90.000 174.958 C 90.000 175.355,95.236 180.497,95.436 180.297 C 95.533 180.200,94.665 179.148,93.506 177.960 C 91.188 175.582,90.000 174.565,90.000 174.958 M159.600 180.000 C 159.600 180.220,160.241 180.400,161.024 180.400 C 161.871 180.400,162.347 180.238,162.200 180.000 C 162.064 179.780,161.423 179.600,160.776 179.600 C 160.129 179.600,159.600 179.780,159.600 180.000 M113.467 180.667 C 113.018 181.115,113.149 214.000,113.600 214.000 C 113.860 214.000,114.000 208.133,114.000 197.200 C 114.000 187.960,113.940 180.400,113.867 180.400 C 113.793 180.400,113.613 180.520,113.467 180.667 M133.467 180.667 C 133.023 181.111,133.152 194.800,133.600 194.800 C 133.852 194.800,134.000 192.133,134.000 187.600 C 134.000 183.640,133.940 180.400,133.867 180.400 C 133.793 180.400,133.613 180.520,133.467 180.667 M165.600 180.800 C 165.600 181.020,165.870 181.200,166.200 181.200 C 166.530 181.200,166.800 181.020,166.800 180.800 C 166.800 180.580,166.530 180.400,166.200 180.400 C 165.870 180.400,165.600 180.580,165.600 180.800 M182.000 181.000 C 182.000 181.330,182.180 181.600,182.400 181.600 C 182.620 181.600,182.800 181.330,182.800 181.000 C 182.800 180.670,182.620 180.400,182.400 180.400 C 182.180 180.400,182.000 180.670,182.000 181.000 M201.200 191.167 C 201.200 199.389,201.082 201.988,200.700 202.167 C 200.300 202.353,200.300 202.447,200.700 202.633 C 200.975 202.762,201.200 203.201,201.200 203.610 C 201.200 204.018,201.380 204.464,201.600 204.600 C 201.863 204.763,202.000 200.671,202.000 192.624 C 202.000 184.741,201.858 180.400,201.600 180.400 C 201.343 180.400,201.200 184.256,201.200 191.167 M214.800 181.224 C 214.800 181.677,214.980 181.936,215.200 181.800 C 215.420 181.664,215.600 181.293,215.600 180.976 C 215.600 180.659,215.420 180.400,215.200 180.400 C 214.980 180.400,214.800 180.771,214.800 181.224 M237.200 183.176 C 237.200 184.792,237.371 186.000,237.600 186.000 C 237.825 186.000,238.000 184.875,238.000 183.424 C 238.000 182.007,237.820 180.736,237.600 180.600 C 237.348 180.444,237.200 181.396,237.200 183.176 M239.600 181.200 C 239.600 181.640,239.780 182.000,240.000 182.000 C 240.220 182.000,240.400 181.640,240.400 181.200 C 240.400 180.760,240.220 180.400,240.000 180.400 C 239.780 180.400,239.600 180.760,239.600 181.200 M44.505 182.308 C 44.013 182.908,43.608 183.625,43.605 183.900 C 43.602 184.175,43.420 184.400,43.200 184.400 C 42.980 184.400,42.800 184.670,42.800 185.000 C 42.800 185.330,42.980 185.600,43.200 185.600 C 43.420 185.600,43.600 185.330,43.600 185.000 C 43.600 184.670,43.780 184.400,44.000 184.400 C 44.220 184.400,44.400 184.080,44.400 183.688 C 44.400 183.297,44.760 182.717,45.200 182.400 C 45.640 182.083,46.000 181.683,46.000 181.512 C 46.000 180.904,45.388 181.230,44.505 182.308 M95.600 181.512 C 95.600 181.683,95.960 182.083,96.400 182.400 C 96.840 182.717,97.200 183.297,97.200 183.688 C 97.200 184.080,97.346 184.400,97.525 184.400 C 97.704 184.400,98.098 185.030,98.400 185.800 C 98.965 187.240,99.600 187.663,99.600 186.600 C 99.600 186.270,99.420 186.000,99.200 186.000 C 98.980 186.000,98.800 185.640,98.800 185.200 C 98.800 184.760,98.620 184.400,98.400 184.400 C 98.180 184.400,98.000 184.175,98.000 183.900 C 97.999 183.625,97.573 182.905,97.053 182.300 C 96.107 181.200,95.600 180.925,95.600 181.512 M269.492 181.442 C 269.331 181.602,269.200 182.009,269.200 182.347 C 269.200 182.797,269.318 182.842,269.645 182.515 C 269.890 182.270,270.021 181.863,269.937 181.610 C 269.852 181.357,269.652 181.281,269.492 181.442 M67.062 182.561 C 65.062 183.304,63.396 184.824,64.096 185.268 C 64.956 185.814,75.693 185.678,75.508 185.123 C 74.766 182.898,70.026 181.460,67.062 182.561 M247.600 182.967 C 247.600 183.388,248.805 184.528,249.021 184.312 C 249.122 184.211,248.844 183.802,248.402 183.402 C 247.961 183.003,247.600 182.807,247.600 182.967 M171.600 183.767 C 171.600 184.188,172.805 185.328,173.021 185.112 C 173.122 185.011,172.844 184.602,172.402 184.202 C 171.961 183.803,171.600 183.607,171.600 183.767 M268.060 184.242 C 267.762 184.578,267.599 184.932,267.695 185.029 C 267.792 185.126,268.198 184.844,268.598 184.402 C 268.997 183.961,269.161 183.607,268.962 183.615 C 268.763 183.624,268.357 183.905,268.060 184.242 M160.000 185.600 C 160.000 185.820,160.450 186.000,161.000 186.000 C 161.550 186.000,162.000 185.820,162.000 185.600 C 162.000 185.380,161.550 185.200,161.000 185.200 C 160.450 185.200,160.000 185.380,160.000 185.600 M42.000 186.600 C 42.000 186.930,42.180 187.200,42.400 187.200 C 42.620 187.200,42.800 186.930,42.800 186.600 C 42.800 186.270,42.620 186.000,42.400 186.000 C 42.180 186.000,42.000 186.270,42.000 186.600 M173.200 186.167 C 173.200 186.588,174.405 187.728,174.621 187.512 C 174.722 187.411,174.444 187.002,174.002 186.602 C 173.561 186.203,173.200 186.007,173.200 186.167 M61.278 187.796 C 57.721 190.788,58.810 191.200,70.283 191.200 L 79.700 191.200 79.450 189.900 C 78.908 187.075,78.054 186.800,69.808 186.800 C 62.564 186.800,62.445 186.814,61.278 187.796 M41.200 188.400 C 41.200 188.840,41.380 189.200,41.600 189.200 C 41.820 189.200,42.000 188.840,42.000 188.400 C 42.000 187.960,41.820 187.600,41.600 187.600 C 41.380 187.600,41.200 187.960,41.200 188.400 M99.600 188.400 C 99.600 188.840,99.780 189.200,100.000 189.200 C 100.220 189.200,100.400 188.840,100.400 188.400 C 100.400 187.960,100.220 187.600,100.000 187.600 C 99.780 187.600,99.600 187.960,99.600 188.400 M265.700 188.198 C 265.131 188.845,265.061 189.200,265.504 189.200 C 265.671 189.200,266.032 188.840,266.307 188.400 C 266.878 187.487,266.451 187.345,265.700 188.198 M40.400 191.000 C 40.400 191.550,40.580 192.000,40.800 192.000 C 41.020 192.000,41.200 191.550,41.200 191.000 C 41.200 190.450,41.020 190.000,40.800 190.000 C 40.580 190.000,40.400 190.450,40.400 191.000 M100.400 191.000 C 100.400 191.550,100.580 192.000,100.800 192.000 C 101.020 192.000,101.200 191.550,101.200 191.000 C 101.200 190.450,101.020 190.000,100.800 190.000 C 100.580 190.000,100.400 190.450,100.400 191.000 M87.600 191.600 C 87.600 191.820,87.870 192.000,88.200 192.000 C 88.530 192.000,88.800 191.820,88.800 191.600 C 88.800 191.380,88.530 191.200,88.200 191.200 C 87.870 191.200,87.600 191.380,87.600 191.600 M145.569 191.700 C 145.316 192.528,145.346 193.200,145.635 193.200 C 145.836 193.200,146.000 192.840,146.000 192.400 C 146.000 191.757,145.701 191.271,145.569 191.700 M151.600 192.600 C 151.600 192.930,151.780 193.200,152.000 193.200 C 152.220 193.200,152.400 192.930,152.400 192.600 C 152.400 192.270,152.220 192.000,152.000 192.000 C 151.780 192.000,151.600 192.270,151.600 192.600 M39.867 192.667 C 39.441 193.093,39.559 196.400,40.000 196.400 C 40.220 196.400,40.400 195.500,40.400 194.400 C 40.400 192.372,40.344 192.189,39.867 192.667 M58.227 193.170 C 57.323 194.169,57.552 195.251,58.804 195.884 C 60.028 196.503,78.988 196.613,80.574 196.010 C 81.870 195.517,82.033 193.460,80.826 192.814 C 79.235 191.962,59.032 192.281,58.227 193.170 M101.200 194.376 C 101.200 195.489,101.380 196.400,101.600 196.400 C 101.820 196.400,102.000 195.601,102.000 194.624 C 102.000 193.647,101.820 192.736,101.600 192.600 C 101.353 192.448,101.200 193.129,101.200 194.376 M170.000 197.176 C 170.000 198.483,170.180 199.664,170.400 199.800 C 170.651 199.955,170.800 199.071,170.800 197.424 C 170.800 195.941,170.626 194.800,170.400 194.800 C 170.178 194.800,170.000 195.859,170.000 197.176 M235.600 197.424 C 235.600 199.071,235.749 199.955,236.000 199.800 C 236.220 199.664,236.400 198.483,236.400 197.176 C 236.400 195.859,236.222 194.800,236.000 194.800 C 235.774 194.800,235.600 195.941,235.600 197.424 M150.800 197.376 C 150.800 197.913,150.980 198.464,151.200 198.600 C 151.433 198.744,151.600 198.337,151.600 197.624 C 151.600 196.951,151.420 196.400,151.200 196.400 C 150.980 196.400,150.800 196.839,150.800 197.376 M57.689 198.223 C 56.722 198.900,56.516 200.356,57.280 201.120 C 58.203 202.043,65.600 201.759,65.600 200.800 C 65.600 200.360,65.399 200.000,65.153 200.000 C 64.895 200.000,64.786 199.587,64.894 199.020 C 65.192 197.460,59.653 196.847,57.689 198.223 M66.500 197.882 C 65.610 198.054,65.160 199.600,66.000 199.600 C 66.220 199.600,66.400 199.330,66.400 199.000 C 66.400 198.323,66.853 198.219,67.420 198.766 C 67.629 198.968,68.248 199.193,68.796 199.266 C 69.411 199.349,69.994 199.822,70.318 200.500 L 70.844 201.600 76.408 201.600 C 82.191 201.600,82.800 201.412,82.800 199.626 C 82.800 197.838,72.467 196.733,66.500 197.882 M130.300 200.297 L 133.200 200.435 133.247 206.918 C 133.273 210.483,133.269 213.548,133.237 213.730 C 133.206 213.911,133.365 213.945,133.590 213.806 C 133.843 213.650,134.000 211.049,134.000 207.019 C 134.000 199.518,134.247 199.955,130.067 200.079 L 127.400 200.159 130.300 200.297 M222.300 200.289 C 223.015 200.378,224.185 200.378,224.900 200.289 C 225.615 200.201,225.030 200.128,223.600 200.128 C 222.170 200.128,221.585 200.201,222.300 200.289 M175.600 202.800 C 175.600 203.240,175.780 203.600,176.000 203.600 C 176.220 203.600,176.400 203.240,176.400 202.800 C 176.400 202.360,176.220 202.000,176.000 202.000 C 175.780 202.000,175.600 202.360,175.600 202.800 M251.748 206.800 C 251.748 209.110,251.814 210.055,251.895 208.900 C 251.976 207.745,251.976 205.855,251.895 204.700 C 251.814 203.545,251.748 204.490,251.748 206.800 M56.963 204.200 C 56.356 205.126,56.356 205.274,56.963 206.200 L 57.618 207.200 69.581 207.200 C 82.504 207.200,82.800 207.152,82.800 205.051 C 82.800 203.240,82.515 203.200,69.729 203.200 L 57.618 203.200 56.963 204.200 M39.600 205.800 C 39.600 206.790,39.780 207.600,40.000 207.600 C 40.220 207.600,40.400 206.790,40.400 205.800 C 40.400 204.810,40.220 204.000,40.000 204.000 C 39.780 204.000,39.600 204.810,39.600 205.800 M101.200 205.800 C 101.200 206.790,101.380 207.600,101.600 207.600 C 101.820 207.600,102.000 206.790,102.000 205.800 C 102.000 204.810,101.820 204.000,101.600 204.000 C 101.380 204.000,101.200 204.810,101.200 205.800 M153.200 205.369 C 153.200 205.729,155.211 207.723,155.392 207.542 C 155.470 207.463,155.324 207.129,155.067 206.799 C 154.431 205.983,153.200 205.040,153.200 205.369 M166.923 206.297 C 166.441 206.892,166.115 207.448,166.199 207.532 C 166.371 207.704,168.400 205.756,168.400 205.418 C 168.400 204.900,167.735 205.295,166.923 206.297 M40.534 208.627 C 40.402 208.972,40.498 209.458,40.747 209.707 C 41.084 210.044,41.200 209.884,41.200 209.080 C 41.200 207.877,40.901 207.673,40.534 208.627 M100.400 209.200 C 100.400 209.640,100.580 210.000,100.800 210.000 C 101.020 210.000,101.200 209.640,101.200 209.200 C 101.200 208.760,101.020 208.400,100.800 208.400 C 100.580 208.400,100.400 208.760,100.400 209.200 M171.662 210.258 C 170.706 211.248,170.019 212.152,170.135 212.269 C 170.336 212.469,172.362 210.582,173.549 209.090 C 174.653 207.703,173.352 208.508,171.662 210.258 M237.200 211.200 C 237.200 212.996,237.348 213.956,237.600 213.800 C 237.820 213.664,238.000 212.494,238.000 211.200 C 238.000 209.906,237.820 208.736,237.600 208.600 C 237.348 208.444,237.200 209.404,237.200 211.200 M56.835 209.535 C 55.151 212.682,63.119 214.367,66.600 211.600 C 68.702 209.929,70.863 209.942,72.920 211.638 C 74.514 212.952,75.675 212.972,75.337 211.680 C 75.208 211.189,75.385 210.815,75.825 210.646 C 76.724 210.301,77.148 210.734,76.388 211.222 C 75.872 211.554,75.873 211.648,76.400 211.990 C 76.870 212.295,77.027 212.164,77.127 211.389 C 77.196 210.845,77.601 210.213,78.027 209.986 C 79.923 208.971,78.478 208.800,68.014 208.800 C 57.954 208.800,57.202 208.849,56.835 209.535 M81.351 209.385 C 81.162 209.875,80.806 209.995,80.046 209.824 C 79.078 209.605,79.054 209.630,79.731 210.160 C 80.163 210.499,80.408 211.115,80.331 211.667 C 80.227 212.411,80.362 212.572,81.000 212.462 C 82.180 212.258,82.800 211.617,82.800 210.600 C 82.800 209.364,81.709 208.449,81.351 209.385 M148.851 209.873 C 149.981 211.258,151.292 212.442,151.482 212.251 C 151.591 212.142,151.038 211.411,150.253 210.627 C 148.791 209.164,147.868 208.668,148.851 209.873 M41.200 211.600 C 41.200 212.040,41.380 212.400,41.600 212.400 C 41.820 212.400,42.000 212.040,42.000 211.600 C 42.000 211.160,41.820 210.800,41.600 210.800 C 41.380 210.800,41.200 211.160,41.200 211.600 M99.600 211.600 C 99.600 212.040,99.780 212.400,100.000 212.400 C 100.220 212.400,100.400 212.040,100.400 211.600 C 100.400 211.160,100.220 210.800,100.000 210.800 C 99.780 210.800,99.600 211.160,99.600 211.600 M42.000 213.400 C 42.000 213.730,42.180 214.000,42.400 214.000 C 42.620 214.000,42.800 213.730,42.800 213.400 C 42.800 213.070,42.620 212.800,42.400 212.800 C 42.180 212.800,42.000 213.070,42.000 213.400 M98.800 213.400 C 98.800 213.730,98.980 214.000,99.200 214.000 C 99.420 214.000,99.600 213.730,99.600 213.400 C 99.600 213.070,99.420 212.800,99.200 212.800 C 98.980 212.800,98.800 213.070,98.800 213.400 M56.759 214.753 C 54.448 216.624,56.991 218.162,62.000 217.924 L 64.600 217.800 64.722 215.900 L 64.844 214.000 61.266 214.000 C 58.359 214.000,57.514 214.141,56.759 214.753 M74.564 215.000 C 73.938 217.497,74.511 218.000,77.982 218.000 C 82.117 218.000,83.200 217.590,83.200 216.024 C 83.200 213.744,75.120 212.786,74.564 215.000 M156.400 214.400 C 156.400 214.620,156.850 214.800,157.400 214.800 C 157.950 214.800,158.400 214.620,158.400 214.400 C 158.400 214.180,157.950 214.000,157.400 214.000 C 156.850 214.000,156.400 214.180,156.400 214.400 M163.400 214.400 C 163.536 214.620,163.896 214.800,164.200 214.800 C 164.504 214.800,164.864 214.620,165.000 214.400 C 165.141 214.172,164.796 214.000,164.200 214.000 C 163.604 214.000,163.259 214.172,163.400 214.400 M42.800 215.000 C 42.800 215.330,42.980 215.600,43.200 215.600 C 43.420 215.600,43.600 215.883,43.600 216.229 C 43.600 217.020,44.743 218.197,45.119 217.793 C 45.274 217.627,45.175 217.410,44.900 217.312 C 44.625 217.214,44.400 216.788,44.400 216.367 C 44.400 215.945,44.220 215.600,44.000 215.600 C 43.780 215.600,43.600 215.330,43.600 215.000 C 43.600 214.670,43.420 214.400,43.200 214.400 C 42.980 214.400,42.800 214.670,42.800 215.000 M98.000 215.000 C 98.000 215.330,97.820 215.600,97.600 215.600 C 97.380 215.600,97.200 215.878,97.200 216.217 C 97.200 216.556,96.840 217.220,96.400 217.692 C 95.138 219.047,95.468 219.302,96.800 218.000 C 97.460 217.355,98.000 216.551,98.000 216.213 C 98.000 215.876,98.180 215.600,98.400 215.600 C 98.620 215.600,98.800 215.330,98.800 215.000 C 98.800 214.670,98.620 214.400,98.400 214.400 C 98.180 214.400,98.000 214.670,98.000 215.000 M46.451 220.298 C 47.486 221.615,48.038 222.095,48.261 221.872 C 48.384 221.749,48.024 221.188,47.461 220.624 C 46.298 219.462,45.622 219.243,46.451 220.298 M94.060 220.651 C 93.543 221.202,93.217 221.750,93.336 221.869 C 93.552 222.085,95.600 220.230,95.600 219.818 C 95.600 219.347,94.956 219.695,94.060 220.651 M49.200 223.018 C 49.200 223.432,51.249 225.284,51.467 225.067 C 51.587 224.947,51.224 224.388,50.661 223.824 C 49.665 222.828,49.200 222.572,49.200 223.018 M90.860 223.851 C 90.343 224.402,90.017 224.950,90.136 225.069 C 90.352 225.285,92.400 223.430,92.400 223.018 C 92.400 222.547,91.756 222.895,90.860 223.851 M86.900 226.544 C 86.405 226.789,86.000 227.127,86.000 227.295 C 86.000 227.463,85.640 227.600,85.200 227.600 C 84.760 227.600,84.400 227.780,84.400 228.000 C 84.400 228.220,84.130 228.400,83.800 228.400 C 83.470 228.400,83.200 228.580,83.200 228.800 C 83.200 229.020,83.470 229.200,83.800 229.200 C 84.130 229.200,84.400 229.020,84.400 228.800 C 84.400 228.580,84.678 228.400,85.017 228.400 C 85.356 228.400,86.020 228.040,86.492 227.600 C 86.964 227.160,87.587 226.800,87.875 226.800 C 88.164 226.800,88.400 226.620,88.400 226.400 C 88.400 225.922,88.097 225.951,86.900 226.544 M55.108 227.600 C 55.580 228.040,56.244 228.400,56.583 228.400 C 56.922 228.400,57.200 228.580,57.200 228.800 C 57.200 229.020,57.470 229.200,57.800 229.200 C 58.130 229.200,58.400 229.020,58.400 228.800 C 58.400 228.580,58.130 228.400,57.800 228.400 C 57.470 228.400,57.200 228.220,57.200 228.000 C 57.200 227.780,56.840 227.600,56.400 227.600 C 55.960 227.600,55.600 227.420,55.600 227.200 C 55.600 226.980,55.296 226.800,54.925 226.800 C 54.352 226.800,54.380 226.922,55.108 227.600 M59.000 229.600 C 59.136 229.820,59.597 230.000,60.024 230.000 C 60.451 230.000,60.800 229.820,60.800 229.600 C 60.800 229.380,60.339 229.200,59.776 229.200 C 59.196 229.200,58.860 229.373,59.000 229.600 M80.800 229.600 C 80.800 229.820,81.149 230.000,81.576 230.000 C 82.003 230.000,82.464 229.820,82.600 229.600 C 82.740 229.373,82.404 229.200,81.824 229.200 C 81.261 229.200,80.800 229.380,80.800 229.600 M61.800 230.400 C 61.936 230.620,62.397 230.800,62.824 230.800 C 63.251 230.800,63.600 230.620,63.600 230.400 C 63.600 230.180,63.139 230.000,62.576 230.000 C 61.996 230.000,61.660 230.173,61.800 230.400 M78.000 230.400 C 78.000 230.620,78.360 230.800,78.800 230.800 C 79.240 230.800,79.600 230.620,79.600 230.400 C 79.600 230.180,79.240 230.000,78.800 230.000 C 78.360 230.000,78.000 230.180,78.000 230.400 M65.000 231.200 C 65.146 231.436,67.530 231.600,70.800 231.600 C 74.070 231.600,76.454 231.436,76.600 231.200 C 76.761 230.940,74.730 230.800,70.800 230.800 C 66.870 230.800,64.839 230.940,65.000 231.200 " stroke="none" fill="#f1f1f1" fill-rule="evenodd"></path><path id="path3" d="M114.000 180.800 C 114.000 181.020,114.855 181.202,115.900 181.205 C 116.945 181.208,118.205 181.319,118.700 181.452 C 119.362 181.629,119.600 181.522,119.600 181.047 C 119.600 180.513,119.112 180.400,116.800 180.400 C 115.200 180.400,114.000 180.571,114.000 180.800 M134.000 180.800 C 134.000 181.020,134.855 181.202,135.900 181.205 C 136.945 181.208,138.205 181.319,138.700 181.452 C 139.362 181.629,139.600 181.522,139.600 181.047 C 139.600 180.513,139.112 180.400,136.800 180.400 C 135.200 180.400,134.000 180.571,134.000 180.800 M155.051 180.717 C 154.944 180.891,155.396 181.075,156.057 181.126 C 156.791 181.182,157.160 181.058,157.005 180.809 C 156.707 180.326,155.333 180.262,155.051 180.717 M182.800 181.000 C 182.800 181.330,182.620 181.600,182.400 181.600 C 182.140 181.600,182.000 187.267,182.000 197.800 C 182.000 208.211,182.141 214.000,182.396 214.000 C 182.648 214.000,182.829 208.106,182.896 197.700 L 183.000 181.400 186.101 181.400 C 188.315 181.400,189.201 181.257,189.201 180.900 C 189.200 180.542,188.293 180.400,186.000 180.400 C 183.422 180.400,182.800 180.517,182.800 181.000 M201.999 180.900 C 201.999 181.242,202.725 181.400,204.299 181.400 L 206.600 181.400 206.704 197.700 C 206.771 208.106,206.952 214.000,207.204 214.000 C 207.900 214.000,207.728 181.671,207.029 180.971 C 206.289 180.232,202.000 180.171,201.999 180.900 M215.300 181.483 C 214.663 182.853,214.568 214.000,215.200 214.000 C 215.460 214.000,215.602 208.429,215.606 198.100 C 215.609 189.355,215.759 181.969,215.938 181.687 C 216.192 181.286,218.551 181.198,226.732 181.287 C 234.901 181.375,237.200 181.290,237.200 180.900 C 237.200 180.512,234.795 180.401,226.500 180.403 L 215.800 180.406 215.300 181.483 M240.400 180.900 C 240.399 181.258,241.306 181.400,243.599 181.400 C 245.891 181.400,246.799 181.258,246.799 180.900 C 246.800 180.542,245.894 180.400,243.600 180.400 C 241.307 180.400,240.400 180.542,240.400 180.900 M263.377 180.915 C 263.050 181.291,263.724 181.387,266.363 181.343 C 268.452 181.308,269.828 181.115,269.919 180.843 C 270.131 180.208,263.934 180.277,263.377 180.915 M153.200 181.600 C 153.200 181.820,153.470 182.000,153.800 182.000 C 154.130 182.000,154.400 181.820,154.400 181.600 C 154.400 181.380,154.130 181.200,153.800 181.200 C 153.470 181.200,153.200 181.380,153.200 181.600 M167.200 181.600 C 167.200 181.820,167.470 182.000,167.800 182.000 C 168.130 182.000,168.400 181.820,168.400 181.600 C 168.400 181.380,168.130 181.200,167.800 181.200 C 167.470 181.200,167.200 181.380,167.200 181.600 M67.462 181.900 C 67.360 182.065,68.412 182.200,69.800 182.200 C 71.188 182.200,72.116 182.068,71.862 181.906 C 71.254 181.519,67.700 181.515,67.462 181.900 M64.478 183.719 C 63.023 185.221,62.905 185.603,63.900 185.594 C 64.404 185.589,64.459 185.498,64.096 185.268 C 63.559 184.927,64.580 183.763,66.200 182.867 C 66.792 182.539,66.839 182.421,66.378 182.412 C 66.037 182.405,65.182 182.994,64.478 183.719 M74.275 183.900 C 75.114 184.725,75.872 185.230,75.959 185.022 C 76.125 184.629,73.686 182.400,73.090 182.400 C 72.902 182.400,73.436 183.075,74.275 183.900 M149.672 184.244 C 147.698 186.309,148.314 186.573,150.376 184.546 C 151.353 183.586,151.893 182.812,151.576 182.827 C 151.259 182.843,150.402 183.480,149.672 184.244 M171.213 183.918 C 171.237 184.410,172.811 186.123,173.034 185.899 C 173.152 185.781,172.788 185.224,172.224 184.661 C 171.661 184.097,171.206 183.763,171.213 183.918 M158.000 185.600 C 158.000 185.820,158.450 186.000,159.000 186.000 C 159.550 186.000,160.000 185.820,160.000 185.600 C 160.000 185.380,159.550 185.200,159.000 185.200 C 158.450 185.200,158.000 185.380,158.000 185.600 M162.000 185.600 C 162.000 185.820,162.360 186.000,162.800 186.000 C 163.240 186.000,163.600 185.820,163.600 185.600 C 163.600 185.380,163.240 185.200,162.800 185.200 C 162.360 185.200,162.000 185.380,162.000 185.600 M52.000 186.813 C 52.000 187.943,53.184 188.310,53.858 187.389 C 54.287 186.801,54.296 186.581,53.900 186.330 C 52.953 185.729,52.000 185.971,52.000 186.813 M191.600 186.600 C 191.600 186.930,191.780 187.200,192.000 187.200 C 192.220 187.200,192.400 186.930,192.400 186.600 C 192.400 186.270,192.220 186.000,192.000 186.000 C 191.780 186.000,191.600 186.270,191.600 186.600 M220.400 190.400 C 220.400 193.067,220.558 194.800,220.800 194.800 C 221.042 194.800,221.200 193.067,221.200 190.400 C 221.200 187.733,221.042 186.000,220.800 186.000 C 220.558 186.000,220.400 187.733,220.400 190.400 M259.600 186.600 C 259.600 186.930,259.780 187.200,260.000 187.200 C 260.220 187.200,260.400 186.930,260.400 186.600 C 260.400 186.270,260.220 186.000,260.000 186.000 C 259.780 186.000,259.600 186.270,259.600 186.600 M61.300 187.196 C 60.585 187.632,60.000 188.187,60.000 188.430 C 60.000 188.672,60.554 188.405,61.231 187.836 C 62.978 186.365,76.283 186.212,78.246 187.639 L 79.400 188.478 78.278 187.439 L 77.155 186.400 69.878 186.401 C 63.328 186.403,62.470 186.482,61.300 187.196 M154.001 187.798 C 152.744 189.137,153.274 189.563,154.576 188.261 C 155.139 187.697,155.600 187.138,155.600 187.018 C 155.600 186.514,154.877 186.867,154.001 187.798 M166.000 187.018 C 166.000 187.138,166.461 187.697,167.024 188.261 C 168.326 189.563,168.856 189.137,167.599 187.798 C 166.723 186.867,166.000 186.514,166.000 187.018 M55.422 187.964 C 55.088 188.504,55.609 189.600,56.200 189.600 C 56.791 189.600,57.312 188.504,56.978 187.964 C 56.854 187.764,56.504 187.600,56.200 187.600 C 55.896 187.600,55.546 187.764,55.422 187.964 M146.800 188.200 C 146.800 188.530,146.980 188.800,147.200 188.800 C 147.420 188.800,147.600 188.530,147.600 188.200 C 147.600 187.870,147.420 187.600,147.200 187.600 C 146.980 187.600,146.800 187.870,146.800 188.200 M174.000 188.200 C 174.000 188.530,174.180 188.800,174.400 188.800 C 174.620 188.800,174.800 188.530,174.800 188.200 C 174.800 187.870,174.620 187.600,174.400 187.600 C 174.180 187.600,174.000 187.870,174.000 188.200 M192.400 188.200 C 192.400 188.530,192.580 188.800,192.800 188.800 C 193.020 188.800,193.200 188.530,193.200 188.200 C 193.200 187.870,193.020 187.600,192.800 187.600 C 192.580 187.600,192.400 187.870,192.400 188.200 M56.800 188.400 C 56.800 188.620,56.530 188.800,56.200 188.800 C 55.870 188.800,55.600 188.620,55.600 188.400 C 55.600 188.180,55.870 188.000,56.200 188.000 C 56.530 188.000,56.800 188.180,56.800 188.400 M250.800 189.000 C 250.800 189.330,250.980 189.600,251.200 189.600 C 251.420 189.600,251.600 189.330,251.600 189.000 C 251.600 188.670,251.420 188.400,251.200 188.400 C 250.980 188.400,250.800 188.670,250.800 189.000 M79.440 189.866 C 79.808 191.399,80.000 191.544,80.000 190.290 C 80.000 189.717,79.813 189.132,79.584 188.990 C 79.311 188.821,79.262 189.123,79.440 189.866 M187.600 201.376 C 187.600 209.525,187.742 214.000,188.000 214.000 C 188.304 214.000,188.636 194.165,188.366 192.145 C 188.347 192.004,188.572 191.731,188.866 191.537 C 189.295 191.254,189.266 191.106,188.717 190.782 C 188.341 190.560,188.128 190.132,188.244 189.830 C 188.360 189.528,188.262 189.162,188.027 189.017 C 187.728 188.832,187.600 192.525,187.600 201.376 M244.400 189.400 C 244.400 189.730,244.580 190.000,244.800 190.000 C 245.020 190.000,245.200 189.730,245.200 189.400 C 245.200 189.070,245.020 188.800,244.800 188.800 C 244.580 188.800,244.400 189.070,244.400 189.400 M59.467 189.467 C 58.911 190.023,59.210 191.200,59.900 191.168 C 60.285 191.151,60.394 191.052,60.142 190.949 C 59.891 190.846,59.777 190.410,59.889 189.981 C 60.098 189.182,59.941 188.992,59.467 189.467 M174.910 190.000 C 174.877 190.440,175.019 190.800,175.225 190.800 C 175.431 190.800,175.600 190.440,175.600 190.000 C 175.600 189.560,175.458 189.200,175.285 189.200 C 175.112 189.200,174.943 189.560,174.910 190.000 M146.000 190.600 C 146.000 190.930,146.180 191.200,146.400 191.200 C 146.620 191.200,146.800 190.930,146.800 190.600 C 146.800 190.270,146.620 190.000,146.400 190.000 C 146.180 190.000,146.000 190.270,146.000 190.600 M257.200 190.600 C 257.200 190.930,257.380 191.200,257.600 191.200 C 257.820 191.200,258.000 190.930,258.000 190.600 C 258.000 190.270,257.820 190.000,257.600 190.000 C 257.380 190.000,257.200 190.270,257.200 190.600 M87.478 190.844 C 86.606 191.352,87.245 192.400,88.425 192.400 C 89.448 192.400,89.760 191.703,89.054 190.997 C 88.356 190.299,88.407 190.304,87.478 190.844 M263.600 191.000 C 263.600 191.330,263.780 191.600,264.000 191.600 C 264.220 191.600,264.400 191.330,264.400 191.000 C 264.400 190.670,264.220 190.400,264.000 190.400 C 263.780 190.400,263.600 190.670,263.600 191.000 M88.800 191.600 C 88.800 191.820,88.530 192.000,88.200 192.000 C 87.870 192.000,87.600 191.820,87.600 191.600 C 87.600 191.380,87.870 191.200,88.200 191.200 C 88.530 191.200,88.800 191.380,88.800 191.600 M85.400 191.893 C 83.884 192.271,83.399 194.144,84.873 193.928 C 85.434 193.846,85.851 193.406,86.038 192.700 C 86.199 192.095,86.301 191.621,86.265 191.646 C 86.229 191.672,85.840 191.783,85.400 191.893 M58.075 192.816 C 57.594 193.264,57.200 193.977,57.200 194.400 C 57.200 196.637,58.050 196.800,69.694 196.800 L 80.436 196.800 81.418 195.818 C 82.612 194.624,82.625 194.394,81.571 193.054 L 80.742 192.000 69.846 192.000 C 59.434 192.000,58.912 192.036,58.075 192.816 M80.826 192.814 C 82.033 193.460,81.870 195.517,80.574 196.010 C 78.988 196.613,60.028 196.503,58.804 195.884 C 57.552 195.251,57.323 194.169,58.227 193.170 C 59.032 192.281,79.235 191.962,80.826 192.814 M253.200 193.000 C 253.200 193.330,253.380 193.600,253.600 193.600 C 253.820 193.600,254.000 193.330,254.000 193.000 C 254.000 192.670,253.820 192.400,253.600 192.400 C 253.380 192.400,253.200 192.670,253.200 193.000 M175.600 193.600 C 175.600 194.040,175.780 194.400,176.000 194.400 C 176.220 194.400,176.400 194.040,176.400 193.600 C 176.400 193.160,176.220 192.800,176.000 192.800 C 175.780 192.800,175.600 193.160,175.600 193.600 M246.800 193.229 C 246.800 193.853,247.990 194.943,248.316 194.618 C 248.468 194.465,248.276 194.162,247.888 193.945 C 247.500 193.728,247.288 193.382,247.415 193.175 C 247.543 192.969,247.457 192.800,247.224 192.800 C 246.991 192.800,246.800 192.993,246.800 193.229 M145.200 194.400 C 145.200 195.060,145.380 195.600,145.600 195.600 C 145.820 195.600,146.000 195.060,146.000 194.400 C 146.000 193.740,145.820 193.200,145.600 193.200 C 145.380 193.200,145.200 193.740,145.200 194.400 M170.000 194.000 C 170.000 194.440,170.180 194.800,170.400 194.800 C 170.620 194.800,170.800 194.440,170.800 194.000 C 170.800 193.560,170.620 193.200,170.400 193.200 C 170.180 193.200,170.000 193.560,170.000 194.000 M150.800 195.200 C 150.800 195.860,150.980 196.400,151.200 196.400 C 151.420 196.400,151.600 195.860,151.600 195.200 C 151.600 194.540,151.420 194.000,151.200 194.000 C 150.980 194.000,150.800 194.540,150.800 195.200 M254.100 194.500 C 254.352 195.257,255.600 195.364,255.600 194.629 C 255.600 194.258,255.258 194.000,254.767 194.000 C 254.278 194.000,254.002 194.207,254.100 194.500 M261.200 195.000 C 261.200 195.330,261.380 195.600,261.600 195.600 C 261.820 195.600,262.000 195.330,262.000 195.000 C 262.000 194.670,261.820 194.400,261.600 194.400 C 261.380 194.400,261.200 194.670,261.200 195.000 M190.800 195.800 C 190.800 196.130,190.980 196.400,191.200 196.400 C 191.420 196.400,191.600 196.130,191.600 195.800 C 191.600 195.470,191.420 195.200,191.200 195.200 C 190.980 195.200,190.800 195.470,190.800 195.800 M191.600 197.400 C 191.600 197.730,191.780 198.000,192.000 198.000 C 192.220 198.000,192.400 197.730,192.400 197.400 C 192.400 197.070,192.220 196.800,192.000 196.800 C 191.780 196.800,191.600 197.070,191.600 197.400 M56.887 198.100 C 56.314 198.797,56.194 199.655,56.529 200.639 C 57.227 202.686,65.349 203.341,65.838 201.389 C 66.051 200.542,67.045 199.600,67.727 199.600 C 67.967 199.600,68.500 201.283,68.438 201.847 C 68.334 202.805,80.874 202.572,82.119 201.592 C 83.609 200.421,83.282 197.600,81.656 197.600 C 81.405 197.600,81.560 197.960,82.000 198.400 C 82.907 199.307,82.974 199.727,82.386 200.826 C 82.007 201.534,81.499 201.600,76.408 201.600 L 70.844 201.600 70.318 200.500 C 69.994 199.822,69.411 199.349,68.796 199.266 C 68.248 199.193,67.629 198.968,67.420 198.766 C 66.853 198.219,66.400 198.323,66.400 199.000 C 66.400 199.330,66.220 199.600,66.000 199.600 C 65.160 199.600,65.610 198.054,66.500 197.882 C 66.995 197.787,66.680 197.699,65.800 197.686 C 64.920 197.673,64.399 197.745,64.642 197.846 C 64.885 197.946,64.999 198.472,64.895 199.014 C 64.786 199.586,64.894 200.000,65.153 200.000 C 65.399 200.000,65.600 200.360,65.600 200.800 C 65.600 201.759,58.203 202.043,57.280 201.120 C 56.516 200.356,56.722 198.900,57.689 198.223 C 58.356 197.756,58.418 197.600,57.938 197.600 C 57.586 197.600,57.113 197.825,56.887 198.100 M198.000 198.600 C 198.000 198.930,198.180 199.200,198.400 199.200 C 198.620 199.200,198.800 198.930,198.800 198.600 C 198.800 198.270,198.620 198.000,198.400 198.000 C 198.180 198.000,198.000 198.270,198.000 198.600 M150.800 199.576 C 150.800 200.249,150.980 200.800,151.200 200.800 C 151.420 200.800,151.600 200.361,151.600 199.824 C 151.600 199.287,151.420 198.736,151.200 198.600 C 150.967 198.456,150.800 198.863,150.800 199.576 M192.400 199.000 C 192.400 199.330,192.580 199.600,192.800 199.600 C 193.020 199.600,193.200 199.330,193.200 199.000 C 193.200 198.670,193.020 198.400,192.800 198.400 C 192.580 198.400,192.400 198.670,192.400 199.000 M258.800 199.000 C 258.800 199.330,258.980 199.600,259.200 199.600 C 259.420 199.600,259.600 199.330,259.600 199.000 C 259.600 198.670,259.420 198.400,259.200 198.400 C 258.980 198.400,258.800 198.670,258.800 199.000 M145.200 200.400 C 145.200 201.060,145.380 201.600,145.600 201.600 C 145.820 201.600,146.000 201.060,146.000 200.400 C 146.000 199.740,145.820 199.200,145.600 199.200 C 145.380 199.200,145.200 199.740,145.200 200.400 M227.887 199.499 L 220.375 199.618 220.487 204.309 L 220.600 209.000 228.901 209.200 C 235.381 209.356,237.201 209.290,237.201 208.900 C 237.200 208.517,235.333 208.400,229.200 208.400 L 221.200 208.400 221.200 204.224 L 221.200 200.048 228.400 200.234 C 234.665 200.395,235.600 200.340,235.600 199.810 C 235.600 199.474,235.555 199.241,235.500 199.291 C 235.445 199.340,232.019 199.434,227.887 199.499 M250.800 199.800 C 250.800 200.130,250.980 200.400,251.200 200.400 C 251.420 200.400,251.600 200.130,251.600 199.800 C 251.600 199.470,251.420 199.200,251.200 199.200 C 250.980 199.200,250.800 199.470,250.800 199.800 M119.417 200.028 C 119.721 200.520,133.994 200.395,133.998 199.900 C 133.999 199.735,130.659 199.600,126.576 199.600 C 121.407 199.600,119.233 199.730,119.417 200.028 M170.000 200.353 C 170.000 200.793,170.180 201.264,170.400 201.400 C 170.620 201.536,170.800 201.287,170.800 200.847 C 170.800 200.407,170.620 199.936,170.400 199.800 C 170.180 199.664,170.000 199.913,170.000 200.353 M198.800 200.200 C 198.800 200.530,198.980 200.800,199.200 200.800 C 199.420 200.800,199.600 200.530,199.600 200.200 C 199.600 199.870,199.420 199.600,199.200 199.600 C 198.980 199.600,198.800 199.870,198.800 200.200 M175.600 201.200 C 175.600 201.640,175.780 202.000,176.000 202.000 C 176.220 202.000,176.400 201.640,176.400 201.200 C 176.400 200.760,176.220 200.400,176.000 200.400 C 175.780 200.400,175.600 200.760,175.600 201.200 M251.800 207.400 C 251.800 211.030,251.935 214.000,252.100 214.000 C 252.265 214.000,252.400 211.030,252.400 207.400 C 252.400 203.770,252.265 200.800,252.100 200.800 C 251.935 200.800,251.800 203.770,251.800 207.400 M56.816 203.675 C 55.877 204.683,55.802 205.505,56.557 206.500 C 57.373 207.575,57.704 207.330,56.963 206.200 C 56.358 205.276,56.357 205.125,56.959 204.206 L 57.611 203.212 69.705 203.100 L 81.800 202.988 69.716 202.894 C 57.741 202.801,57.624 202.808,56.816 203.675 M169.200 203.400 C 169.200 203.730,169.380 204.000,169.600 204.000 C 169.820 204.000,170.000 203.730,170.000 203.400 C 170.000 203.070,169.820 202.800,169.600 202.800 C 169.380 202.800,169.200 203.070,169.200 203.400 M82.300 203.599 C 82.989 204.372,82.927 205.816,82.171 206.571 C 81.826 206.917,81.700 207.200,81.891 207.200 C 83.207 207.200,83.668 204.452,82.500 203.568 C 81.904 203.118,81.875 203.122,82.300 203.599 M146.000 204.400 C 146.000 204.840,146.180 205.200,146.400 205.200 C 146.620 205.200,146.800 204.840,146.800 204.400 C 146.800 203.960,146.620 203.600,146.400 203.600 C 146.180 203.600,146.000 203.960,146.000 204.400 M174.800 204.600 C 174.800 204.930,174.980 205.200,175.200 205.200 C 175.420 205.200,175.600 204.930,175.600 204.600 C 175.600 204.270,175.420 204.000,175.200 204.000 C 174.980 204.000,174.800 204.270,174.800 204.600 M168.400 205.000 C 168.400 205.330,168.580 205.600,168.800 205.600 C 169.020 205.600,169.200 205.330,169.200 205.000 C 169.200 204.670,169.020 204.400,168.800 204.400 C 168.580 204.400,168.400 204.670,168.400 205.000 M64.124 207.499 C 67.383 207.567,72.603 207.566,75.724 207.499 C 78.846 207.431,76.180 207.376,69.800 207.377 C 63.420 207.377,60.866 207.432,64.124 207.499 M147.600 207.800 C 147.600 208.130,147.780 208.400,148.000 208.400 C 148.220 208.400,148.400 208.130,148.400 207.800 C 148.400 207.470,148.220 207.200,148.000 207.200 C 147.780 207.200,147.600 207.470,147.600 207.800 M165.200 208.000 C 165.200 208.220,165.470 208.400,165.800 208.400 C 166.130 208.400,166.400 208.220,166.400 208.000 C 166.400 207.780,166.130 207.600,165.800 207.600 C 165.470 207.600,165.200 207.780,165.200 208.000 M57.054 208.829 C 55.505 210.048,56.121 212.845,57.923 212.773 C 58.453 212.752,58.412 212.655,57.735 212.327 C 56.701 211.827,56.290 210.552,56.835 209.535 C 57.202 208.849,57.954 208.800,68.014 208.800 C 78.478 208.800,79.923 208.971,78.027 209.986 C 77.601 210.213,77.196 210.845,77.127 211.389 C 77.027 212.164,76.870 212.295,76.400 211.990 C 75.873 211.648,75.872 211.554,76.388 211.222 C 77.130 210.745,76.734 210.297,75.865 210.630 C 74.715 211.072,75.189 212.800,76.461 212.800 C 77.348 212.800,77.570 212.599,77.673 211.700 C 77.844 210.219,79.436 209.923,79.977 211.272 C 80.288 212.047,80.353 212.075,80.375 211.444 C 80.389 211.028,80.085 210.434,79.700 210.123 C 79.057 209.605,79.076 209.580,79.929 209.816 C 80.563 209.991,81.015 209.858,81.350 209.400 C 81.790 208.798,81.896 208.792,82.352 209.342 C 83.109 210.254,82.736 211.711,81.600 212.284 C 81.050 212.561,80.870 212.785,81.200 212.781 C 83.375 212.757,83.990 209.629,82.020 208.610 C 79.936 207.533,58.463 207.721,57.054 208.829 M156.800 208.800 C 156.800 209.020,157.070 209.200,157.400 209.200 C 157.730 209.200,158.000 209.020,158.000 208.800 C 158.000 208.580,157.730 208.400,157.400 208.400 C 157.070 208.400,156.800 208.580,156.800 208.800 M163.600 208.800 C 163.600 209.020,163.870 209.200,164.200 209.200 C 164.530 209.200,164.800 209.020,164.800 208.800 C 164.800 208.580,164.530 208.400,164.200 208.400 C 163.870 208.400,163.600 208.580,163.600 208.800 M198.000 209.400 C 198.000 209.730,198.180 210.000,198.400 210.000 C 198.620 210.000,198.800 209.730,198.800 209.400 C 198.800 209.070,198.620 208.800,198.400 208.800 C 198.180 208.800,198.000 209.070,198.000 209.400 M66.600 211.600 C 65.769 212.260,65.238 212.800,65.419 212.800 C 65.600 212.800,66.180 212.395,66.706 211.900 C 67.452 211.199,68.136 211.000,69.794 211.000 C 70.965 211.000,71.840 210.865,71.738 210.700 C 71.230 209.877,68.071 210.431,66.600 211.600 M198.800 211.000 C 198.800 211.330,198.980 211.600,199.200 211.600 C 199.420 211.600,199.600 211.330,199.600 211.000 C 199.600 210.670,199.420 210.400,199.200 210.400 C 198.980 210.400,198.800 210.670,198.800 211.000 M199.600 212.600 C 199.600 212.930,199.780 213.200,200.000 213.200 C 200.220 213.200,200.400 212.930,200.400 212.600 C 200.400 212.270,200.220 212.000,200.000 212.000 C 199.780 212.000,199.600 212.270,199.600 212.600 M154.800 213.600 C 154.800 213.820,155.070 214.000,155.400 214.000 C 155.730 214.000,156.000 213.820,156.000 213.600 C 156.000 213.380,155.730 213.200,155.400 213.200 C 155.070 213.200,154.800 213.380,154.800 213.600 M56.700 214.149 C 55.677 214.937,55.843 215.355,56.889 214.623 C 57.531 214.173,58.761 214.000,61.311 214.000 L 64.844 214.000 64.722 215.900 L 64.600 217.800 60.867 217.800 C 57.633 217.800,57.058 217.696,56.567 217.024 C 56.217 216.545,56.000 216.451,56.000 216.779 C 56.000 217.938,57.379 218.374,61.086 218.387 C 65.272 218.402,65.754 218.064,65.523 215.283 L 65.400 213.800 61.400 213.705 C 58.535 213.637,57.201 213.763,56.700 214.149 M74.432 214.300 C 74.450 214.718,74.544 214.799,74.665 214.500 C 74.919 213.871,81.255 213.808,82.526 214.422 C 83.370 214.830,83.374 214.823,82.624 214.222 C 81.416 213.254,74.387 213.321,74.432 214.300 M158.400 214.400 C 158.400 214.626,159.541 214.800,161.024 214.800 C 162.671 214.800,163.555 214.651,163.400 214.400 C 163.264 214.180,162.083 214.000,160.776 214.000 C 159.459 214.000,158.400 214.178,158.400 214.400 M74.406 217.700 C 74.400 218.435,81.697 218.813,82.139 218.100 C 82.241 217.935,80.699 217.864,78.712 217.942 C 75.987 218.049,75.014 217.950,74.755 217.542 C 74.489 217.120,74.411 217.156,74.406 217.700 " stroke="none" fill="#7e7e7d" fill-rule="evenodd"></path><path id="path4" d="M157.000 180.800 C 157.136 181.020,156.937 181.200,156.557 181.200 C 156.177 181.200,155.973 181.306,156.103 181.437 C 156.437 181.770,158.000 181.223,158.000 180.773 C 158.000 180.568,157.719 180.400,157.376 180.400 C 157.033 180.400,156.864 180.580,157.000 180.800 M163.807 180.788 C 163.540 181.220,165.493 181.840,165.885 181.448 C 166.022 181.312,165.833 181.200,165.467 181.200 C 165.100 181.200,164.800 181.020,164.800 180.800 C 164.800 180.288,164.121 180.280,163.807 180.788 M65.717 181.427 C 65.012 181.736,63.842 182.635,63.117 183.426 C 62.393 184.217,61.239 185.435,60.554 186.132 C 59.139 187.572,58.400 188.838,58.400 189.821 C 58.400 190.191,57.841 191.132,57.157 191.910 C 56.027 193.197,55.937 193.498,56.163 195.209 C 56.352 196.632,56.265 197.214,55.807 197.595 C 55.075 198.202,54.986 201.226,55.680 201.920 C 56.053 202.293,56.053 202.507,55.680 202.880 C 55.416 203.144,55.206 203.729,55.214 204.180 C 55.227 204.932,55.279 204.917,55.842 204.000 C 56.179 203.450,56.355 203.324,56.232 203.721 C 56.097 204.157,56.172 204.341,56.421 204.187 C 56.647 204.047,56.721 203.543,56.585 203.066 C 56.448 202.590,56.242 201.862,56.125 201.450 C 55.990 200.970,56.072 200.797,56.353 200.971 C 56.627 201.140,56.702 201.010,56.553 200.621 C 56.422 200.279,56.109 199.997,55.857 199.994 C 55.571 199.990,55.598 199.862,55.931 199.651 C 56.223 199.466,56.403 198.974,56.331 198.557 C 56.248 198.078,56.404 197.843,56.755 197.918 C 57.180 198.009,57.256 197.701,57.079 196.609 C 56.952 195.824,56.991 195.271,57.166 195.379 C 57.341 195.487,57.402 195.145,57.302 194.619 C 57.181 193.988,57.393 193.427,57.924 192.972 C 58.367 192.593,58.631 192.026,58.511 191.712 C 58.391 191.399,58.676 190.623,59.146 189.987 C 60.116 188.675,60.226 188.243,59.500 188.595 C 59.225 188.728,59.405 188.537,59.900 188.170 C 60.395 187.803,60.800 187.254,60.800 186.951 C 60.800 186.648,60.991 186.400,61.224 186.400 C 61.457 186.400,61.537 186.578,61.403 186.795 C 61.257 187.032,61.440 187.083,61.859 186.922 C 62.285 186.759,62.372 186.591,62.083 186.494 C 61.737 186.379,61.721 186.121,62.023 185.557 C 62.253 185.128,62.583 184.866,62.757 184.973 C 62.931 185.081,63.677 184.546,64.415 183.784 C 65.153 183.023,65.964 182.400,66.217 182.400 C 66.748 182.400,69.200 181.225,69.200 180.971 C 69.200 180.599,66.928 180.897,65.717 181.427 M71.544 181.613 C 72.610 182.501,73.378 182.653,72.989 181.900 C 72.847 181.625,73.122 181.850,73.600 182.400 C 74.078 182.950,74.339 183.152,74.179 182.848 C 73.984 182.477,74.071 182.362,74.444 182.498 C 74.750 182.609,74.955 182.903,74.900 183.150 C 74.845 183.398,75.025 183.555,75.300 183.500 C 75.575 183.445,75.751 183.638,75.690 183.930 C 75.630 184.221,75.745 184.358,75.946 184.233 C 76.333 183.994,77.798 185.935,77.475 186.258 C 77.371 186.362,78.063 187.213,79.012 188.149 C 80.100 189.222,80.789 190.286,80.874 191.026 C 81.001 192.126,82.393 194.636,82.406 193.789 C 82.409 193.575,82.564 193.640,82.750 193.934 C 83.027 194.370,83.129 194.362,83.312 193.885 C 83.435 193.565,83.020 192.679,82.391 191.916 C 81.762 191.153,81.117 190.004,80.958 189.364 C 80.262 186.566,73.872 180.779,71.516 180.813 L 70.600 180.827 71.544 181.613 M116.200 181.567 L 118.600 181.800 118.710 188.300 C 118.776 192.181,118.977 194.800,119.210 194.800 C 119.447 194.800,119.600 192.238,119.600 188.247 C 119.600 180.771,119.806 181.149,115.800 181.273 L 113.800 181.334 116.200 181.567 M135.107 181.490 C 135.826 181.579,136.906 181.577,137.507 181.486 C 138.108 181.395,137.520 181.322,136.200 181.324 C 134.880 181.326,134.388 181.401,135.107 181.490 M154.400 181.600 C 154.400 181.820,154.128 182.000,153.797 182.000 C 152.554 182.000,147.600 186.960,147.600 188.205 C 147.600 188.532,147.420 188.800,147.200 188.800 C 146.980 188.800,146.800 189.325,146.800 189.967 C 146.800 190.608,146.615 191.225,146.390 191.337 C 146.165 191.449,146.210 191.494,146.490 191.437 C 146.770 191.380,147.055 190.989,147.122 190.567 C 147.537 187.947,152.201 182.400,153.989 182.400 C 154.388 182.400,154.818 182.130,154.945 181.800 C 155.071 181.470,155.001 181.200,154.787 181.200 C 154.574 181.200,154.400 181.380,154.400 181.600 M166.800 181.800 C 167.074 182.130,167.531 182.400,167.817 182.400 C 169.360 182.400,173.580 187.476,174.550 190.500 C 174.674 190.885,175.006 191.186,175.287 191.168 C 175.689 191.144,175.692 191.093,175.300 190.935 C 175.025 190.824,174.800 190.399,174.800 189.990 C 174.800 189.582,174.620 189.136,174.400 189.000 C 174.180 188.864,174.000 188.403,174.000 187.976 C 174.000 187.549,173.820 187.200,173.600 187.200 C 173.380 187.200,173.200 187.007,173.200 186.771 C 173.200 186.536,172.928 186.071,172.596 185.739 C 172.264 185.407,172.112 184.942,172.258 184.706 C 172.416 184.450,172.335 184.393,172.059 184.564 C 171.799 184.724,171.489 184.575,171.354 184.225 C 171.222 183.881,170.864 183.600,170.557 183.600 C 170.251 183.600,170.000 183.420,170.000 183.200 C 170.000 182.980,169.730 182.800,169.400 182.800 C 169.070 182.800,168.800 182.620,168.800 182.400 C 168.800 182.180,168.440 182.000,168.000 182.000 C 167.560 182.000,167.200 181.820,167.200 181.600 C 167.200 181.380,166.998 181.200,166.751 181.200 C 166.441 181.200,166.456 181.385,166.800 181.800 M182.983 181.701 C 182.877 181.976,182.840 189.401,182.900 198.201 L 183.009 214.200 183.105 197.900 L 183.200 181.600 185.900 181.603 C 188.295 181.606,188.651 181.707,189.049 182.503 C 191.030 186.460,191.597 187.349,191.598 186.500 C 191.599 186.005,191.420 185.600,191.200 185.600 C 190.980 185.600,190.800 185.240,190.800 184.800 C 190.800 184.360,190.620 184.000,190.400 184.000 C 190.180 184.000,190.000 183.730,190.000 183.400 C 190.000 183.070,189.841 182.800,189.647 182.800 C 189.452 182.800,189.199 182.440,189.084 182.000 C 188.832 181.035,183.342 180.765,182.983 181.701 M202.200 181.679 C 201.876 182.559,201.780 206.400,202.100 206.400 C 202.265 206.400,202.400 200.820,202.400 194.000 L 202.400 181.600 204.396 181.600 L 206.391 181.600 206.502 197.700 L 206.613 213.800 206.607 197.600 L 206.600 181.400 204.496 181.279 C 203.041 181.195,202.332 181.319,202.200 181.679 M226.323 181.496 L 236.845 181.613 236.723 183.307 L 236.600 185.000 228.400 185.200 L 220.200 185.400 220.200 190.167 C 220.200 193.709,220.331 194.960,220.710 195.037 C 220.990 195.094,221.036 195.049,220.810 194.937 C 220.567 194.816,220.400 192.950,220.400 190.367 L 220.400 186.000 228.582 186.000 L 236.764 186.000 237.017 184.652 C 237.156 183.911,237.209 182.876,237.135 182.352 L 237.000 181.400 226.400 181.390 L 215.800 181.379 226.323 181.496 M240.800 181.637 C 240.348 181.956,240.324 182.111,240.700 182.264 C 240.975 182.375,241.200 182.722,241.200 183.033 C 241.200 183.345,241.346 183.600,241.525 183.600 C 241.704 183.600,242.098 184.230,242.400 185.000 C 242.702 185.770,243.096 186.400,243.275 186.400 C 243.454 186.400,243.600 186.670,243.600 187.000 C 243.600 187.330,243.780 187.600,244.000 187.600 C 244.220 187.600,244.414 187.915,244.432 188.300 C 244.450 188.708,244.546 188.794,244.663 188.506 C 244.773 188.234,244.489 187.486,244.031 186.844 C 243.574 186.202,243.200 185.494,243.200 185.272 C 243.200 185.049,243.065 184.807,242.900 184.733 C 242.581 184.592,241.200 182.240,241.200 181.838 C 241.200 181.177,246.313 181.620,246.529 182.300 C 246.746 182.985,248.004 185.204,248.400 185.600 C 248.618 185.818,249.436 187.220,250.268 188.800 C 250.785 189.781,250.795 189.783,250.798 188.900 C 250.799 188.405,250.620 188.000,250.400 188.000 C 250.180 188.000,250.000 187.730,250.000 187.400 C 250.000 187.070,249.854 186.800,249.675 186.800 C 249.496 186.800,249.102 186.170,248.800 185.400 C 248.498 184.630,248.104 184.000,247.925 184.000 C 247.746 184.000,247.600 183.732,247.600 183.405 C 247.600 181.510,242.759 180.251,240.800 181.637 M266.300 181.496 C 268.628 181.628,269.354 182.010,268.400 182.600 C 268.180 182.736,268.001 183.152,268.002 183.524 C 268.004 183.953,268.223 183.782,268.600 183.058 C 269.438 181.453,269.094 181.189,266.276 181.277 L 263.800 181.354 266.300 181.496 M262.400 183.000 C 262.098 183.770,261.704 184.400,261.525 184.400 C 261.346 184.400,261.200 184.670,261.200 185.000 C 261.200 185.330,261.020 185.600,260.800 185.600 C 260.580 185.600,260.400 186.002,260.400 186.494 C 260.400 187.416,261.672 185.640,262.258 183.900 C 262.387 183.515,262.631 183.200,262.800 183.200 C 262.969 183.200,263.201 182.840,263.316 182.400 C 263.666 181.062,262.986 181.507,262.400 183.000 M215.782 198.000 C 215.782 206.910,215.835 210.555,215.900 206.100 C 215.964 201.645,215.964 194.355,215.900 189.900 C 215.835 185.445,215.782 189.090,215.782 198.000 M65.200 182.525 C 65.200 182.594,64.660 183.168,64.000 183.800 C 63.340 184.432,62.800 184.817,62.800 184.656 C 62.800 184.494,63.276 183.920,63.858 183.381 C 64.858 182.455,65.200 182.236,65.200 182.525 M266.812 185.038 C 266.489 185.677,265.711 186.971,265.084 187.914 C 264.456 188.856,264.031 189.846,264.140 190.114 C 264.251 190.388,264.351 190.295,264.368 189.900 C 264.386 189.515,264.580 189.200,264.800 189.200 C 265.020 189.200,265.200 188.930,265.200 188.600 C 265.200 188.270,265.380 188.000,265.600 188.000 C 265.820 188.000,266.000 187.764,266.000 187.475 C 266.000 187.187,266.372 186.551,266.827 186.063 C 267.282 185.575,267.597 184.883,267.527 184.526 C 267.436 184.061,267.233 184.207,266.812 185.038 M157.794 185.210 C 157.643 185.454,157.628 185.761,157.760 185.893 C 157.892 186.025,158.000 185.923,158.000 185.667 C 158.000 185.074,163.444 185.021,163.737 185.610 C 163.849 185.836,163.894 185.791,163.838 185.510 C 163.705 184.844,158.190 184.570,157.794 185.210 M66.918 185.898 C 68.633 185.973,71.333 185.972,72.918 185.897 C 74.503 185.821,73.100 185.759,69.800 185.760 C 66.500 185.761,65.203 185.822,66.918 185.898 M153.981 187.581 C 152.891 188.670,152.000 189.840,152.000 190.181 C 152.000 190.521,151.820 190.800,151.600 190.800 C 151.380 190.800,151.221 191.205,151.246 191.700 C 151.281 192.377,151.338 192.427,151.476 191.900 C 151.576 191.515,151.825 191.200,152.029 191.200 C 152.233 191.200,152.400 190.840,152.400 190.400 C 152.400 189.960,152.580 189.600,152.800 189.600 C 153.020 189.600,153.200 189.361,153.200 189.070 C 153.200 188.516,154.829 186.800,155.354 186.800 C 155.521 186.800,155.927 186.530,156.257 186.200 C 156.609 185.848,156.672 185.600,156.410 185.600 C 156.163 185.600,155.070 186.491,153.981 187.581 M165.343 186.200 C 165.673 186.530,166.104 186.800,166.302 186.800 C 166.812 186.800,168.400 188.560,168.400 189.126 C 168.400 189.387,168.580 189.600,168.800 189.600 C 169.020 189.600,169.200 189.870,169.200 190.200 C 169.200 190.530,169.380 190.800,169.600 190.800 C 169.820 190.800,170.000 191.100,170.000 191.467 C 170.000 191.833,170.114 192.020,170.252 191.881 C 170.753 191.381,169.153 188.826,167.339 187.230 C 165.600 185.699,164.034 184.891,165.343 186.200 M53.866 187.372 C 53.720 187.752,53.904 187.846,54.492 187.692 C 55.022 187.553,55.229 187.629,55.062 187.900 C 54.889 188.180,55.131 188.169,55.770 187.867 C 56.305 187.615,56.710 187.387,56.671 187.362 C 56.024 186.935,54.031 186.942,53.866 187.372 M259.632 187.700 C 259.614 188.085,259.420 188.400,259.200 188.400 C 258.980 188.400,258.800 188.670,258.800 189.000 C 258.800 189.330,258.620 189.600,258.400 189.600 C 258.180 189.600,258.014 190.005,258.032 190.500 C 258.053 191.097,258.139 191.198,258.289 190.800 C 258.413 190.470,258.863 189.702,259.288 189.094 C 259.714 188.486,259.973 187.766,259.863 187.494 C 259.746 187.206,259.650 187.292,259.632 187.700 M57.079 188.557 C 56.915 188.974,56.875 189.409,56.991 189.524 C 57.355 189.889,57.676 189.291,57.524 188.531 C 57.383 187.835,57.362 187.836,57.079 188.557 M187.294 201.267 L 187.388 214.200 187.500 201.480 C 187.572 193.251,187.751 188.846,188.006 189.003 C 188.223 189.138,188.400 189.597,188.400 190.024 C 188.400 190.451,188.580 190.800,188.800 190.800 C 189.020 190.800,189.200 191.160,189.200 191.600 C 189.200 192.040,189.380 192.400,189.600 192.400 C 189.820 192.400,190.000 192.760,190.000 193.200 C 190.000 193.640,190.180 194.000,190.400 194.000 C 190.620 194.000,190.814 194.315,190.832 194.700 C 190.849 195.085,190.943 195.209,191.040 194.976 C 191.275 194.410,188.336 188.711,187.700 188.499 C 187.306 188.368,187.220 191.065,187.294 201.267 M55.200 189.106 C 55.200 189.810,53.549 190.163,53.156 189.543 C 52.888 189.120,52.811 189.155,52.806 189.700 C 52.798 190.640,55.008 190.677,55.367 189.743 C 55.505 189.381,55.525 188.991,55.409 188.876 C 55.294 188.761,55.200 188.865,55.200 189.106 M192.809 189.467 C 192.804 189.943,192.935 190.393,193.100 190.467 C 193.265 190.540,194.009 191.770,194.754 193.200 C 198.027 199.485,197.997 199.436,197.998 198.500 C 197.999 198.005,197.820 197.600,197.600 197.600 C 197.380 197.600,197.200 197.240,197.200 196.800 C 197.200 196.360,197.020 196.000,196.800 196.000 C 196.580 196.000,196.400 195.640,196.400 195.200 C 196.400 194.760,196.220 194.400,196.000 194.400 C 195.780 194.400,195.600 194.130,195.600 193.800 C 195.600 193.470,195.420 193.200,195.200 193.200 C 194.980 193.200,194.800 192.855,194.800 192.433 C 194.800 192.012,194.659 191.607,194.488 191.533 C 194.316 191.460,193.870 190.770,193.497 190.000 C 192.960 188.892,192.816 188.781,192.809 189.467 M245.200 189.344 C 245.200 189.723,245.560 190.420,246.000 190.892 C 246.440 191.364,246.800 191.987,246.800 192.275 C 246.800 192.564,246.980 192.800,247.200 192.800 C 247.420 192.800,247.600 193.070,247.600 193.400 C 247.600 193.730,247.746 194.000,247.925 194.000 C 248.104 194.000,248.498 194.630,248.800 195.400 C 249.102 196.170,249.496 196.800,249.675 196.800 C 249.854 196.800,250.000 197.070,250.000 197.400 C 250.000 197.730,250.180 198.000,250.400 198.000 C 250.620 198.000,250.814 198.315,250.832 198.700 C 250.850 199.108,250.946 199.194,251.063 198.906 C 251.173 198.634,250.889 197.886,250.431 197.244 C 249.974 196.602,249.600 195.879,249.600 195.638 C 249.600 195.397,249.441 195.200,249.247 195.200 C 249.052 195.200,248.790 194.885,248.663 194.500 C 248.221 193.158,245.200 188.660,245.200 189.344 M251.209 189.859 C 251.204 190.112,251.648 191.102,252.195 192.059 C 252.982 193.435,253.191 193.611,253.195 192.900 C 253.198 192.405,253.042 192.000,252.850 192.000 C 252.657 192.000,252.212 191.415,251.859 190.700 C 251.507 189.985,251.214 189.607,251.209 189.859 M263.246 190.738 C 263.221 191.034,262.826 191.802,262.369 192.444 C 261.911 193.086,261.627 193.834,261.737 194.106 C 261.854 194.394,261.950 194.308,261.968 193.900 C 261.986 193.515,262.180 193.200,262.400 193.200 C 262.620 193.200,262.800 192.945,262.800 192.633 C 262.800 192.322,263.001 192.000,263.246 191.918 C 263.491 191.836,263.602 191.416,263.492 190.985 C 263.382 190.553,263.272 190.442,263.246 190.738 M64.923 191.499 C 67.741 191.568,72.241 191.568,74.923 191.499 C 77.605 191.430,75.300 191.373,69.800 191.373 C 64.300 191.374,62.105 191.430,64.923 191.499 M86.100 192.445 C 85.864 193.358,85.449 193.860,84.778 194.047 C 83.811 194.317,83.813 194.321,84.905 194.360 C 85.513 194.382,86.354 194.614,86.773 194.876 C 87.371 195.249,87.672 195.239,88.168 194.827 C 88.901 194.219,89.023 192.400,88.331 192.400 C 88.074 192.400,87.544 192.111,87.154 191.758 C 86.491 191.158,86.422 191.204,86.100 192.445 M257.232 191.625 C 257.214 191.968,256.840 192.636,256.400 193.108 C 255.960 193.580,255.600 194.244,255.600 194.583 C 255.600 195.527,254.421 195.316,254.012 194.300 C 253.791 193.748,253.641 193.640,253.625 194.020 C 253.595 194.752,254.358 195.600,255.046 195.600 C 255.640 195.600,257.691 192.031,257.442 191.431 C 257.344 191.194,257.249 191.281,257.232 191.625 M87.520 192.480 C 87.784 192.744,88.000 193.297,88.000 193.709 C 88.000 194.929,86.621 194.375,86.473 193.097 C 86.339 191.929,86.735 191.695,87.520 192.480 M175.265 193.200 C 175.193 194.524,175.605 196.000,176.047 196.000 C 176.241 196.000,176.400 195.640,176.400 195.200 C 176.400 194.760,176.232 194.400,176.027 194.400 C 175.821 194.400,175.578 193.905,175.487 193.300 C 175.327 192.249,175.317 192.245,175.265 193.200 M146.000 194.200 C 146.000 194.970,145.820 195.600,145.600 195.600 C 145.380 195.600,145.200 196.410,145.200 197.400 C 145.200 198.390,145.369 199.200,145.576 199.200 C 145.783 199.200,146.012 199.875,146.085 200.700 C 146.159 201.525,146.239 200.085,146.263 197.500 C 146.288 194.915,146.238 192.800,146.154 192.800 C 146.069 192.800,146.000 193.430,146.000 194.200 M170.270 193.075 C 170.529 193.259,170.820 194.128,170.917 195.005 C 171.092 196.588,171.093 196.587,171.047 194.831 C 171.015 193.626,170.809 193.011,170.400 192.901 C 169.988 192.790,169.947 192.844,170.270 193.075 M150.667 193.467 C 150.217 193.917,150.362 201.129,150.827 201.416 C 151.061 201.561,151.376 201.547,151.527 201.385 C 151.677 201.223,151.575 201.010,151.300 200.912 C 150.681 200.691,150.584 194.000,151.200 194.000 C 151.420 194.000,151.600 193.820,151.600 193.600 C 151.600 193.145,151.065 193.068,150.667 193.467 M260.846 194.738 C 260.821 195.034,260.426 195.802,259.969 196.444 C 259.511 197.086,259.227 197.834,259.337 198.106 C 259.466 198.425,259.548 198.379,259.568 197.975 C 259.586 197.632,259.972 196.951,260.427 196.463 C 260.882 195.975,261.173 195.266,261.073 194.888 C 260.973 194.506,260.872 194.439,260.846 194.738 M81.590 195.767 C 81.106 196.545,81.120 196.560,81.800 196.000 C 82.479 195.441,82.515 195.476,82.320 196.500 C 82.197 197.149,82.346 197.886,82.685 198.300 C 83.017 198.704,83.130 198.746,82.953 198.400 C 82.686 197.878,82.737 197.873,83.343 198.366 C 84.110 198.988,84.106 201.058,83.338 200.913 C 83.084 200.865,82.634 201.135,82.338 201.513 C 81.853 202.133,81.868 202.146,82.500 201.651 C 83.241 201.070,83.334 201.316,82.845 202.561 C 82.591 203.210,82.469 203.240,82.022 202.761 C 81.607 202.318,80.113 202.214,74.919 202.265 C 69.471 202.319,68.378 202.235,68.553 201.778 C 68.670 201.474,68.593 201.119,68.383 200.989 C 68.172 200.859,68.000 201.213,68.000 201.776 L 68.000 202.800 74.711 202.800 C 80.428 202.800,81.568 202.903,82.411 203.493 C 82.955 203.874,83.490 204.144,83.600 204.093 C 83.710 204.042,83.800 204.585,83.800 205.300 C 83.800 206.181,83.607 206.606,83.200 206.618 C 82.870 206.628,82.672 206.898,82.761 207.218 C 82.849 207.538,82.933 208.102,82.947 208.471 C 82.960 208.841,83.158 209.111,83.386 209.071 C 83.952 208.974,84.157 211.128,83.641 211.751 C 83.154 212.338,83.048 214.157,83.415 215.646 C 83.624 216.493,83.418 216.930,82.336 217.944 L 81.000 219.196 82.071 219.198 C 84.229 219.202,85.665 215.619,84.168 213.965 C 83.657 213.400,83.626 213.098,84.007 212.388 C 84.282 211.874,84.371 210.905,84.222 210.054 C 84.082 209.255,83.982 208.195,84.000 207.700 C 84.019 207.205,84.033 205.990,84.033 205.000 C 84.033 204.010,84.019 202.795,84.000 202.300 C 83.982 201.805,84.079 200.769,84.216 199.998 C 84.408 198.915,84.277 198.380,83.638 197.644 C 83.110 197.035,82.892 196.374,83.033 195.812 C 83.322 194.660,82.300 194.628,81.590 195.767 M192.401 197.500 C 192.401 197.995,192.580 198.400,192.800 198.400 C 193.020 198.400,193.200 198.760,193.200 199.200 C 193.200 199.640,193.380 200.000,193.600 200.000 C 193.820 200.000,194.000 200.360,194.000 200.800 C 194.000 201.240,194.180 201.600,194.400 201.600 C 194.620 201.600,194.800 201.870,194.800 202.200 C 194.800 202.530,194.980 202.800,195.200 202.800 C 195.420 202.800,195.600 203.160,195.600 203.600 C 195.600 204.040,195.780 204.400,196.000 204.400 C 196.220 204.400,196.400 204.745,196.400 205.167 C 196.400 205.588,196.541 205.993,196.712 206.067 C 196.884 206.140,197.330 206.830,197.703 207.600 C 198.240 208.708,198.384 208.819,198.391 208.133 C 198.396 207.657,198.265 207.207,198.100 207.133 C 197.820 207.009,197.117 205.729,193.745 199.200 C 192.854 197.475,192.402 196.903,192.401 197.500 M59.300 197.494 C 60.345 197.576,62.055 197.576,63.100 197.494 C 64.145 197.412,63.290 197.344,61.200 197.344 C 59.110 197.344,58.255 197.412,59.300 197.494 M70.100 197.498 C 72.245 197.570,75.755 197.570,77.900 197.498 C 80.045 197.426,78.290 197.367,74.000 197.367 C 69.710 197.367,67.955 197.426,70.100 197.498 M170.867 199.924 C 170.827 200.956,170.640 201.548,170.400 201.400 C 170.180 201.264,170.000 201.472,170.000 201.862 C 170.000 202.506,170.057 202.514,170.628 201.944 C 171.053 201.519,171.203 200.814,171.095 199.758 L 170.934 198.200 170.867 199.924 M257.700 199.986 C 256.546 202.152,256.293 214.000,257.400 214.000 C 257.910 214.000,258.000 212.959,258.000 207.033 C 258.000 202.269,258.141 200.020,258.446 199.918 C 258.691 199.836,258.826 199.438,258.746 199.033 C 258.637 198.483,258.372 198.725,257.700 199.986 M175.378 200.179 C 175.235 200.937,175.213 201.792,175.328 202.079 C 175.443 202.365,175.551 202.105,175.568 201.500 C 175.586 200.895,175.780 200.400,176.000 200.400 C 176.220 200.400,176.400 200.040,176.400 199.600 C 176.400 198.277,175.655 198.699,175.378 200.179 M227.800 199.187 L 220.200 199.400 220.200 204.400 L 220.200 209.400 228.480 209.508 L 236.761 209.616 236.916 211.908 L 237.072 214.200 237.036 211.800 L 237.000 209.400 228.800 209.200 L 220.600 209.000 220.487 204.300 L 220.375 199.600 227.764 199.600 C 232.258 199.600,235.250 199.443,235.400 199.200 C 235.536 198.980,235.592 198.839,235.524 198.887 C 235.456 198.934,231.980 199.069,227.800 199.187 M119.067 199.467 C 118.607 199.926,118.753 214.000,119.217 214.000 C 119.496 214.000,119.596 211.604,119.517 206.783 L 119.400 199.567 126.862 199.683 C 130.967 199.748,134.241 199.665,134.139 199.500 C 133.909 199.129,119.436 199.097,119.067 199.467 M251.646 199.900 C 251.621 200.395,251.776 200.800,251.990 200.800 C 252.224 200.800,252.429 203.493,252.501 207.500 L 252.621 214.200 252.710 207.300 C 252.763 203.266,252.646 200.400,252.429 200.400 C 252.225 200.400,251.976 200.085,251.876 199.700 C 251.738 199.173,251.681 199.223,251.646 199.900 M65.940 201.200 L 65.522 202.400 62.135 202.400 C 60.272 202.400,58.354 202.191,57.874 201.935 C 57.084 201.514,57.053 201.533,57.549 202.135 C 58.158 202.873,66.674 203.167,66.221 202.434 C 66.096 202.232,66.171 201.602,66.387 201.034 C 66.603 200.465,66.685 200.000,66.569 200.000 C 66.453 200.000,66.170 200.540,65.940 201.200 M199.209 201.021 C 199.200 201.462,201.178 205.600,201.398 205.600 C 201.608 205.600,201.090 203.816,200.818 203.600 C 200.680 203.490,200.263 202.770,199.892 202.000 C 199.522 201.230,199.214 200.790,199.209 201.021 M151.246 202.639 C 151.180 203.269,152.365 205.536,152.925 205.851 C 153.251 206.033,153.243 205.948,152.900 205.579 C 152.625 205.282,152.400 204.716,152.400 204.320 C 152.400 203.924,152.233 203.600,152.029 203.600 C 151.825 203.600,151.576 203.285,151.476 202.900 C 151.375 202.515,151.272 202.397,151.246 202.639 M170.032 203.300 C 170.014 203.685,169.820 204.000,169.600 204.000 C 169.380 204.000,169.201 204.405,169.202 204.900 C 169.205 205.717,169.261 205.693,169.813 204.633 C 170.148 203.991,170.341 203.271,170.243 203.033 C 170.144 202.795,170.049 202.915,170.032 203.300 M55.214 206.220 C 55.206 206.671,55.416 207.256,55.680 207.520 C 56.053 207.893,56.053 208.107,55.680 208.480 C 55.416 208.744,55.214 209.239,55.232 209.580 C 55.253 209.996,55.330 210.034,55.466 209.698 C 55.577 209.421,55.813 209.284,55.989 209.393 C 56.165 209.502,56.555 209.289,56.855 208.919 C 57.311 208.357,57.311 208.300,56.857 208.573 C 56.428 208.832,56.370 208.646,56.581 207.688 C 56.736 206.982,56.672 206.368,56.428 206.217 C 56.170 206.058,56.095 206.236,56.232 206.679 C 56.355 207.076,56.179 206.950,55.842 206.400 C 55.279 205.483,55.227 205.468,55.214 206.220 M147.040 205.906 C 147.282 206.068,147.583 206.470,147.708 206.800 C 147.861 207.201,147.947 207.101,147.968 206.500 C 147.990 205.895,147.770 205.602,147.300 205.606 C 146.868 205.610,146.769 205.725,147.040 205.906 M167.463 206.800 C 166.875 207.460,166.547 208.000,166.735 208.000 C 167.085 208.000,168.056 206.990,168.563 206.100 C 169.047 205.249,168.581 205.546,167.463 206.800 M173.630 206.500 C 173.079 207.915,170.838 210.812,170.084 211.084 C 169.708 211.219,168.922 211.661,168.338 212.065 C 167.754 212.469,166.910 212.800,166.462 212.800 C 165.530 212.800,164.988 213.422,165.593 213.796 C 165.817 213.934,166.000 213.857,166.000 213.624 C 166.000 213.391,166.450 213.200,167.000 213.200 C 167.550 213.200,168.000 213.020,168.000 212.800 C 168.000 212.580,168.270 212.400,168.600 212.400 C 168.930 212.400,169.200 212.220,169.200 212.000 C 169.200 211.780,169.441 211.600,169.736 211.600 C 170.407 211.600,172.802 208.997,173.599 207.400 C 173.929 206.740,174.379 206.068,174.599 205.906 C 174.846 205.725,174.805 205.610,174.490 205.606 C 174.210 205.603,173.823 206.005,173.630 206.500 M57.602 207.534 C 57.823 207.608,57.931 207.788,57.841 207.934 C 57.750 208.080,63.042 208.200,69.600 208.200 C 76.158 208.200,81.450 208.080,81.359 207.934 C 81.269 207.788,81.376 207.608,81.596 207.534 C 81.817 207.460,76.418 207.400,69.598 207.400 C 62.778 207.400,57.380 207.460,57.602 207.534 M148.402 207.717 C 148.400 208.573,151.099 211.600,151.864 211.600 C 152.159 211.600,152.400 211.780,152.400 212.000 C 152.400 212.220,152.670 212.400,153.000 212.400 C 153.330 212.400,153.600 212.580,153.600 212.800 C 153.600 213.020,154.125 213.200,154.767 213.200 C 155.408 213.200,156.025 213.385,156.137 213.610 C 156.249 213.836,156.294 213.790,156.239 213.510 C 156.183 213.230,155.704 212.937,155.174 212.860 C 154.644 212.783,153.730 212.378,153.143 211.960 C 152.557 211.542,151.911 211.200,151.708 211.200 C 151.183 211.200,149.762 209.609,149.029 208.200 C 148.606 207.387,148.404 207.232,148.402 207.717 M155.009 208.080 C 155.251 208.710,157.540 209.794,157.890 209.444 C 158.024 209.310,157.906 209.200,157.628 209.200 C 157.351 209.200,156.602 208.829,155.965 208.375 C 155.284 207.890,154.890 207.769,155.009 208.080 M164.800 208.800 C 164.800 209.020,164.485 209.214,164.100 209.232 C 163.715 209.249,163.595 209.344,163.833 209.443 C 164.071 209.541,164.791 209.348,165.433 209.013 C 166.493 208.461,166.517 208.405,165.700 208.402 C 165.205 208.401,164.800 208.580,164.800 208.800 M160.000 209.600 C 160.000 209.820,160.360 210.000,160.800 210.000 C 161.240 210.000,161.600 209.820,161.600 209.600 C 161.600 209.380,161.240 209.200,160.800 209.200 C 160.360 209.200,160.000 209.380,160.000 209.600 M77.754 210.977 C 77.632 211.294,77.603 211.879,77.689 212.277 C 77.787 212.728,77.924 212.512,78.054 211.700 C 78.271 210.338,78.130 209.996,77.754 210.977 M79.060 210.670 C 79.312 210.851,79.611 211.450,79.723 212.000 C 79.899 212.861,79.918 212.838,79.863 211.831 C 79.828 211.171,79.538 210.591,79.200 210.500 C 78.799 210.393,78.752 210.449,79.060 210.670 M199.614 211.100 C 199.606 211.595,199.780 212.000,200.000 212.000 C 200.220 212.000,200.400 212.349,200.400 212.776 C 200.400 213.203,200.580 213.664,200.800 213.800 C 201.383 214.161,201.272 213.606,200.400 211.800 C 199.797 210.551,199.624 210.397,199.614 211.100 M55.387 211.905 C 55.501 212.671,55.313 213.775,54.931 214.577 C 54.148 216.219,54.673 217.983,56.187 218.793 C 57.574 219.535,58.231 219.129,57.162 218.190 C 56.667 217.755,56.394 217.625,56.555 217.900 C 56.716 218.175,56.687 218.400,56.491 218.400 C 55.867 218.400,55.130 216.571,55.267 215.365 C 55.362 214.537,55.594 214.232,56.070 214.311 C 56.438 214.371,56.853 214.239,56.991 214.015 C 57.129 213.792,57.007 213.699,56.721 213.809 C 56.385 213.937,56.179 213.647,56.141 212.989 C 56.091 212.111,56.169 212.042,56.706 212.485 C 57.261 212.944,57.269 212.905,56.784 212.126 C 56.485 211.645,56.111 211.331,55.954 211.428 C 55.797 211.526,55.561 211.379,55.430 211.102 C 55.299 210.826,55.280 211.187,55.387 211.905 M59.913 213.095 C 61.076 213.176,62.876 213.176,63.913 213.093 C 64.951 213.011,64.000 212.945,61.800 212.946 C 59.600 212.947,58.751 213.014,59.913 213.095 M158.900 213.894 C 159.945 213.976,161.655 213.976,162.700 213.894 C 163.745 213.812,162.890 213.744,160.800 213.744 C 158.710 213.744,157.855 213.812,158.900 213.894 M74.114 215.800 C 74.117 216.900,74.195 217.303,74.287 216.695 C 74.379 216.086,74.377 215.186,74.282 214.695 C 74.187 214.203,74.111 214.700,74.114 215.800 " stroke="none" fill="#7c5c34" fill-rule="evenodd"></path></g></svg>