<svg xmlns="http://www.w3.org/2000/svg" xmlns:xlink="http://www.w3.org/1999/xlink" width="150" zoomAndPan="magnify" viewBox="0 0 112.5 30.000001" height="40" preserveAspectRatio="xMidYMid meet" version="1.0"><defs><g/><clipPath id="id1"><path d="M 1.574219 0 L 110.445312 0 L 110.445312 29.03125 L 1.574219 29.03125 Z M 1.574219 0 " clip-rule="nonzero"/></clipPath><clipPath id="id2"><path d="M 20.964844 5.140625 L 39.917969 5.140625 L 39.917969 24.09375 L 20.964844 24.09375 Z M 20.964844 5.140625 " clip-rule="nonzero"/></clipPath></defs><g clip-path="url(#id1)"><path fill="#ffffff" d="M 1.574219 0 L 110.925781 0 L 110.925781 36.453125 L 1.574219 36.453125 Z M 1.574219 0 " fill-opacity="1" fill-rule="nonzero"/><path fill="#ffffff" d="M 1.574219 0 L 110.925781 0 L 110.925781 29.160156 L 1.574219 29.160156 Z M 1.574219 0 " fill-opacity="1" fill-rule="nonzero"/><path fill="#ffffff" d="M 1.574219 0 L 110.925781 0 L 110.925781 29.160156 L 1.574219 29.160156 Z M 1.574219 0 " fill-opacity="1" fill-rule="nonzero"/><path fill="#ffffff" d="M 1.574219 0 L 110.925781 0 L 110.925781 29.160156 L 1.574219 29.160156 Z M 1.574219 0 " fill-opacity="1" fill-rule="nonzero"/></g><g fill="#000000" fill-opacity="1"><g transform="translate(43.859125, 19.933206)"><g><path d="M 6.8125 -9.78125 L 8.90625 -9.78125 L 5.578125 0 L 3.3125 0 L 0 -9.78125 L 2.09375 -9.78125 L 3.9375 -3.96875 C 4.039062 -3.625 4.144531 -3.222656 4.25 -2.765625 C 4.363281 -2.304688 4.429688 -1.988281 4.453125 -1.8125 C 4.503906 -2.21875 4.671875 -2.9375 4.953125 -3.96875 Z M 6.8125 -9.78125 "/></g></g></g><g fill="#000000" fill-opacity="1"><g transform="translate(52.756417, 19.933206)"><g><path d="M 7.21875 0 L 6.515625 -2.328125 L 2.9375 -2.328125 L 2.234375 0 L 0 0 L 3.453125 -9.828125 L 5.984375 -9.828125 L 9.453125 0 Z M 6.015625 -4.0625 C 5.359375 -6.175781 4.988281 -7.367188 4.90625 -7.640625 C 4.820312 -7.921875 4.765625 -8.140625 4.734375 -8.296875 C 4.585938 -7.734375 4.164062 -6.320312 3.46875 -4.0625 Z M 6.015625 -4.0625 "/></g></g></g><g fill="#000000" fill-opacity="1"><g transform="translate(62.201851, 19.933206)"><g><path d="M 9.1875 -9.78125 L 9.1875 -3.453125 C 9.1875 -2.734375 9.023438 -2.097656 8.703125 -1.546875 C 8.378906 -1.003906 7.910156 -0.585938 7.296875 -0.296875 C 6.691406 -0.00390625 5.972656 0.140625 5.140625 0.140625 C 3.878906 0.140625 2.898438 -0.179688 2.203125 -0.828125 C 1.515625 -1.472656 1.171875 -2.359375 1.171875 -3.484375 L 1.171875 -9.78125 L 3.234375 -9.78125 L 3.234375 -3.796875 C 3.234375 -3.035156 3.382812 -2.476562 3.6875 -2.125 C 3.988281 -1.78125 4.488281 -1.609375 5.1875 -1.609375 C 5.863281 -1.609375 6.351562 -1.785156 6.65625 -2.140625 C 6.96875 -2.492188 7.125 -3.050781 7.125 -3.8125 L 7.125 -9.78125 Z M 9.1875 -9.78125 "/></g></g></g><g fill="#000000" fill-opacity="1"><g transform="translate(72.549715, 19.933206)"><g><path d="M 1.234375 0 L 1.234375 -9.78125 L 3.3125 -9.78125 L 3.3125 -1.71875 L 7.265625 -1.71875 L 7.265625 0 Z M 1.234375 0 "/></g></g></g><g fill="#000000" fill-opacity="1"><g transform="translate(80.283874, 19.933206)"><g><path d="M 5 0 L 2.9375 0 L 2.9375 -8.0625 L 0.28125 -8.0625 L 0.28125 -9.78125 L 7.65625 -9.78125 L 7.65625 -8.0625 L 5 -8.0625 Z M 5 0 "/></g></g></g><path fill="#000000" d="M 30.441406 9.824219 C 29.695312 9.824219 29.089844 10.429688 29.089844 11.179688 L 29.089844 12.351562 L 31.796875 12.351562 L 31.796875 11.179688 C 31.796875 10.429688 31.191406 9.824219 30.441406 9.824219 Z M 30.441406 9.824219 " fill-opacity="1" fill-rule="nonzero"/><path fill="#000000" d="M 30.421875 14.15625 C 29.699219 14.167969 29.105469 14.757812 29.089844 15.480469 C 29.078125 15.992188 29.351562 16.445312 29.765625 16.683594 L 29.765625 17.539062 C 29.765625 17.914062 30.070312 18.21875 30.441406 18.21875 C 30.816406 18.21875 31.117188 17.914062 31.117188 17.539062 L 31.117188 16.683594 C 31.523438 16.449219 31.796875 16.011719 31.796875 15.511719 C 31.796875 14.757812 31.179688 14.144531 30.421875 14.15625 Z M 30.421875 14.15625 " fill-opacity="1" fill-rule="nonzero"/><g clip-path="url(#id2)"><path fill="#000000" d="M 30.441406 5.140625 C 25.207031 5.140625 20.964844 9.382812 20.964844 14.617188 C 20.964844 19.851562 25.207031 24.09375 30.441406 24.09375 C 35.675781 24.09375 39.917969 19.851562 39.917969 14.617188 C 39.917969 9.382812 35.675781 5.140625 30.441406 5.140625 Z M 35.40625 18.667969 C 35.40625 19.417969 34.800781 20.023438 34.050781 20.023438 L 26.832031 20.023438 C 26.085938 20.023438 25.480469 19.417969 25.480469 18.667969 L 25.480469 13.707031 C 25.480469 12.957031 26.085938 12.351562 26.832031 12.351562 L 27.734375 12.351562 L 27.734375 11.179688 C 27.734375 9.683594 28.945312 8.472656 30.441406 8.472656 C 31.9375 8.472656 33.148438 9.683594 33.148438 11.179688 L 33.148438 12.351562 L 34.050781 12.351562 C 34.800781 12.351562 35.40625 12.957031 35.40625 13.707031 Z M 35.40625 18.667969 " fill-opacity="1" fill-rule="nonzero"/></g></svg>